[[{"name":"D4","midi":62,"time":0,"velocity":0.6299212598425197,"duration":1.100916,"quarterNotes":"2.000"},{"name":"F#4","midi":66,"time":1.100916,"velocity":0.6299212598425197,"duration":0.5504580000000001,"quarterNotes":"1.000"},{"name":"G4","midi":67,"time":1.6513740000000001,"velocity":0.6299212598425197,"duration":0.5504579999999999,"quarterNotes":"1.000"},{"name":"A4","midi":69,"time":2.201832,"velocity":0.6299212598425197,"duration":1.1009160000000002,"quarterNotes":"2.000"},{"name":"B4","midi":71,"time":3.3027480000000002,"velocity":0.6299212598425197,"duration":0.5504579999999999,"quarterNotes":"1.000"},{"name":"C#5","midi":73,"time":3.853206,"velocity":0.6299212598425197,"duration":0.5504579999999999,"quarterNotes":"1.000"},{"name":"D5","midi":74,"time":4.403664,"velocity":0.6299212598425197,"duration":1.1009159999999998,"quarterNotes":"2.000"},{"name":"C#5","midi":73,"time":5.50458,"velocity":0.6299212598425197,"duration":0.5504579999999999,"quarterNotes":"1.000"},{"name":"B4","midi":71,"time":6.055038,"velocity":0.6299212598425197,"duration":0.5504579999999999,"quarterNotes":"1.000"},{"name":"A4","midi":69,"time":6.605496,"velocity":0.6299212598425197,"duration":2.2018320000000005,"quarterNotes":"4.000"},{"name":"A4","midi":69,"time":8.807328,"velocity":0.6299212598425197,"duration":1.1009159999999998,"quarterNotes":"2.000"},{"name":"A4","midi":69,"time":9.908244,"velocity":0.6299212598425197,"duration":0.5504580000000008,"quarterNotes":"1.000"},{"name":"A4","midi":69,"time":10.458702,"velocity":0.6299212598425197,"duration":0.5504580000000008,"quarterNotes":"1.000"},{"name":"B4","midi":71,"time":11.009160000000001,"velocity":0.6299212598425197,"duration":1.1009159999999998,"quarterNotes":"2.000"},{"name":"A4","midi":69,"time":12.110076000000001,"velocity":0.6299212598425197,"duration":1.1009159999999998,"quarterNotes":"2.000"},{"name":"G4","midi":67,"time":13.210992000000001,"velocity":0.6299212598425197,"duration":1.1009159999999998,"quarterNotes":"2.000"},{"name":"F#4","midi":66,"time":14.311908,"velocity":0.6299212598425197,"duration":1.1009159999999998,"quarterNotes":"2.000"},{"name":"E4","midi":64,"time":15.412824,"velocity":0.6299212598425197,"duration":2.2018319999999996,"quarterNotes":"4.000"},{"name":"F#4","midi":66,"time":17.614656,"velocity":0.6299212598425197,"duration":1.1009160000000016,"quarterNotes":"2.000"},{"name":"F#4","midi":66,"time":18.715572,"velocity":0.6299212598425197,"duration":0.550457999999999,"quarterNotes":"1.000"},{"name":"E4","midi":64,"time":19.26603,"velocity":0.6299212598425197,"duration":0.550457999999999,"quarterNotes":"1.000"},{"name":"D4","midi":62,"time":19.816488,"velocity":0.6299212598425197,"duration":0.550457999999999,"quarterNotes":"1.000"},{"name":"F#4","midi":66,"time":20.366946,"velocity":0.6299212598425197,"duration":0.550457999999999,"quarterNotes":"1.000"},{"name":"A4","midi":69,"time":20.917403999999998,"velocity":0.6299212598425197,"duration":0.550457999999999,"quarterNotes":"1.000"},{"name":"D5","midi":74,"time":21.467861999999997,"velocity":0.6299212598425197,"duration":0.550457999999999,"quarterNotes":"1.000"},{"name":"B4","midi":71,"time":22.018319999999996,"velocity":0.6299212598425197,"duration":0.550457999999999,"quarterNotes":"1.000"},{"name":"A4","midi":69,"time":22.568777999999995,"velocity":0.6299212598425197,"duration":0.550457999999999,"quarterNotes":"1.000"},{"name":"G4","midi":67,"time":23.119235999999994,"velocity":0.6299212598425197,"duration":0.550457999999999,"quarterNotes":"1.000"},{"name":"F#4","midi":66,"time":23.669693999999993,"velocity":0.6299212598425197,"duration":0.550457999999999,"quarterNotes":"1.000"},{"name":"E4","midi":64,"time":24.22015199999999,"velocity":0.6299212598425197,"duration":2.2018319999999996,"quarterNotes":"4.000"},{"name":"A4","midi":69,"time":26.42198399999999,"velocity":0.6299212598425197,"duration":1.1009160000000016,"quarterNotes":"2.000"},{"name":"B4","midi":71,"time":27.522899999999993,"velocity":0.6299212598425197,"duration":0.550457999999999,"quarterNotes":"1.000"},{"name":"C#5","midi":73,"time":28.073357999999992,"velocity":0.6299212598425197,"duration":0.550457999999999,"quarterNotes":"1.000"},{"name":"D5","midi":74,"time":28.62381599999999,"velocity":0.6299212598425197,"duration":1.6513740000000006,"quarterNotes":"3.000"},{"name":"G4","midi":67,"time":30.27518999999999,"velocity":0.6299212598425197,"duration":0.550457999999999,"quarterNotes":"1.000"},{"name":"F#4","midi":66,"time":30.82564799999999,"velocity":0.6299212598425197,"duration":1.1009160000000016,"quarterNotes":"2.000"},{"name":"E4","midi":64,"time":31.926563999999992,"velocity":0.6299212598425197,"duration":1.100915999999998,"quarterNotes":"2.000"},{"name":"D4","midi":62,"time":33.02747999999999,"velocity":0.6299212598425197,"duration":2.201832000000003,"quarterNotes":"4.000"}],[{"name":"D4","midi":62,"time":0,"velocity":0.6299212598425197,"duration":1.100916,"quarterNotes":"2.000"},{"name":"D4","midi":62,"time":1.100916,"velocity":0.6299212598425197,"duration":0.5504580000000001,"quarterNotes":"1.000"},{"name":"C#4","midi":61,"time":1.6513740000000001,"velocity":0.6299212598425197,"duration":0.5504579999999999,"quarterNotes":"1.000"},{"name":"D4","midi":62,"time":2.201832,"velocity":0.6299212598425197,"duration":1.1009160000000002,"quarterNotes":"2.000"},{"name":"D4","midi":62,"time":3.3027480000000002,"velocity":0.6299212598425197,"duration":0.5504579999999999,"quarterNotes":"1.000"},{"name":"E4","midi":64,"time":3.853206,"velocity":0.6299212598425197,"duration":0.5504579999999999,"quarterNotes":"1.000"},{"name":"F#4","midi":66,"time":4.403664,"velocity":0.6299212598425197,"duration":1.1009159999999998,"quarterNotes":"2.000"},{"name":"E4","midi":64,"time":5.50458,"velocity":0.6299212598425197,"duration":0.5504579999999999,"quarterNotes":"1.000"},{"name":"D4","midi":62,"time":6.055038,"velocity":0.6299212598425197,"duration":0.5504579999999999,"quarterNotes":"1.000"},{"name":"C#4","midi":61,"time":6.605496,"velocity":0.6299212598425197,"duration":2.2018320000000005,"quarterNotes":"4.000"},{"name":"D4","midi":62,"time":8.807328,"velocity":0.6299212598425197,"duration":1.1009159999999998,"quarterNotes":"2.000"},{"name":"D4","midi":62,"time":9.908244,"velocity":0.6299212598425197,"duration":0.5504580000000008,"quarterNotes":"1.000"},{"name":"D4","midi":62,"time":10.458702,"velocity":0.6299212598425197,"duration":0.5504580000000008,"quarterNotes":"1.000"},{"name":"D4","midi":62,"time":11.009160000000001,"velocity":0.6299212598425197,"duration":1.1009159999999998,"quarterNotes":"2.000"},{"name":"D4","midi":62,"time":12.110076000000001,"velocity":0.6299212598425197,"duration":0.5504580000000008,"quarterNotes":"1.000"},{"name":"A3","midi":57,"time":12.660534000000002,"velocity":0.6299212598425197,"duration":0.5504580000000008,"quarterNotes":"1.000"},{"name":"B3","midi":59,"time":13.210992000000003,"velocity":0.6299212598425197,"duration":0.5504580000000008,"quarterNotes":"1.000"},{"name":"C#4","midi":61,"time":13.761450000000004,"velocity":0.6299212598425197,"duration":0.5504580000000008,"quarterNotes":"1.000"},{"name":"D4","midi":62,"time":14.311908000000004,"velocity":0.6299212598425197,"duration":1.1009159999999998,"quarterNotes":"2.000"},{"name":"C#4","midi":61,"time":15.412824000000004,"velocity":0.6299212598425197,"duration":2.2018319999999996,"quarterNotes":"4.000"},{"name":"D4","midi":62,"time":17.614656000000004,"velocity":0.6299212598425197,"duration":1.1009160000000016,"quarterNotes":"2.000"},{"name":"D4","midi":62,"time":18.715572000000005,"velocity":0.6299212598425197,"duration":0.550457999999999,"quarterNotes":"1.000"},{"name":"A3","midi":57,"time":19.266030000000004,"velocity":0.6299212598425197,"duration":0.550457999999999,"quarterNotes":"1.000"},{"name":"A3","midi":57,"time":19.816488000000003,"velocity":0.6299212598425197,"duration":0.550457999999999,"quarterNotes":"1.000"},{"name":"D4","midi":62,"time":20.366946000000002,"velocity":0.6299212598425197,"duration":0.550457999999999,"quarterNotes":"1.000"},{"name":"D4","midi":62,"time":20.917404,"velocity":0.6299212598425197,"duration":1.1009160000000016,"quarterNotes":"2.000"},{"name":"D4","midi":62,"time":22.018320000000003,"velocity":0.6299212598425197,"duration":1.1009160000000016,"quarterNotes":"2.000"},{"name":"C#4","midi":61,"time":23.119236000000004,"velocity":0.6299212598425197,"duration":0.550457999999999,"quarterNotes":"1.000"},{"name":"D4","midi":62,"time":23.669694000000003,"velocity":0.6299212598425197,"duration":0.550457999999999,"quarterNotes":"1.000"},{"name":"C#4","midi":61,"time":24.220152000000002,"velocity":0.6299212598425197,"duration":2.2018319999999996,"quarterNotes":"4.000"},{"name":"D4","midi":62,"time":26.421984000000002,"velocity":0.6299212598425197,"duration":1.1009160000000016,"quarterNotes":"2.000"},{"name":"D4","midi":62,"time":27.522900000000003,"velocity":0.6299212598425197,"duration":0.550457999999999,"quarterNotes":"1.000"},{"name":"E4","midi":64,"time":28.073358000000002,"velocity":0.6299212598425197,"duration":0.550457999999999,"quarterNotes":"1.000"},{"name":"F#4","midi":66,"time":28.623816,"velocity":0.6299212598425197,"duration":0.8256869999999985,"quarterNotes":"1.500"},{"name":"E4","midi":64,"time":29.449503,"velocity":0.6299212598425197,"duration":0.2752289999999995,"quarterNotes":"0.500"},{"name":"D4","midi":62,"time":29.724732,"velocity":0.6299212598425197,"duration":0.550457999999999,"quarterNotes":"1.000"},{"name":"D4","midi":64,"time":30.27519,"velocity":0.6299212598425197,"duration":0.550457999999999,"quarterNotes":"1.000"},{"name":"D4","midi":62,"time":30.825647999999997,"velocity":0.6299212598425197,"duration":1.1009160000000016,"quarterNotes":"2.000"},{"name":"C#4","midi":61,"time":31.926564,"velocity":0.6299212598425197,"duration":1.100915999999998,"quarterNotes":"2.000"},{"name":"D4","midi":62,"time":33.02748,"velocity":0.6299212598425197,"duration":2.201832000000003,"quarterNotes":"4.000"}],[{"name":"F#3","midi":54,"time":0,"velocity":0.6299212598425197,"duration":1.100916,"quarterNotes":"2.000"},{"name":"A3","midi":57,"time":1.100916,"velocity":0.6299212598425197,"duration":0.5504580000000001,"quarterNotes":"1.000"},{"name":"A3","midi":57,"time":1.6513740000000001,"velocity":0.6299212598425197,"duration":0.5504579999999999,"quarterNotes":"1.000"},{"name":"A3","midi":57,"time":2.201832,"velocity":0.6299212598425197,"duration":1.1009160000000002,"quarterNotes":"2.000"},{"name":"G3","midi":55,"time":3.3027480000000002,"velocity":0.6299212598425197,"duration":1.1009159999999998,"quarterNotes":"2.000"},{"name":"F#3","midi":54,"time":4.403664,"velocity":0.6299212598425197,"duration":0.5504579999999999,"quarterNotes":"1.000"},{"name":"A3","midi":57,"time":4.954122,"velocity":0.6299212598425197,"duration":0.5504579999999999,"quarterNotes":"1.000"},{"name":"A3","midi":57,"time":5.50458,"velocity":0.6299212598425197,"duration":0.5504579999999999,"quarterNotes":"1.000"},{"name":"G#3","midi":56,"time":6.055038,"velocity":0.6299212598425197,"duration":0.5504579999999999,"quarterNotes":"1.000"},{"name":"A3","midi":57,"time":6.605496,"velocity":0.6299212598425197,"duration":2.2018320000000005,"quarterNotes":"4.000"},{"name":"F#3","midi":54,"time":8.807328,"velocity":0.6299212598425197,"duration":1.1009159999999998,"quarterNotes":"2.000"},{"name":"F#3","midi":54,"time":9.908244,"velocity":0.6299212598425197,"duration":0.5504580000000008,"quarterNotes":"1.000"},{"name":"A3","midi":57,"time":10.458702,"velocity":0.6299212598425197,"duration":0.5504580000000008,"quarterNotes":"1.000"},{"name":"G3","midi":55,"time":11.009160000000001,"velocity":0.6299212598425197,"duration":1.1009159999999998,"quarterNotes":"2.000"},{"name":"A3","midi":57,"time":12.110076000000001,"velocity":0.6299212598425197,"duration":0.5504580000000008,"quarterNotes":"1.000"},{"name":"F#3","midi":54,"time":12.660534000000002,"velocity":0.6299212598425197,"duration":0.5504580000000008,"quarterNotes":"1.000"},{"name":"G3","midi":55,"time":13.210992000000003,"velocity":0.6299212598425197,"duration":1.1009159999999998,"quarterNotes":"2.000"},{"name":"A3","midi":57,"time":14.311908000000003,"velocity":0.6299212598425197,"duration":1.1009159999999998,"quarterNotes":"2.000"},{"name":"A3","midi":57,"time":15.412824000000002,"velocity":0.6299212598425197,"duration":2.2018320000000013,"quarterNotes":"4.000"},{"name":"A3","midi":57,"time":17.614656000000004,"velocity":0.6299212598425197,"duration":1.1009160000000016,"quarterNotes":"2.000"},{"name":"A3","midi":57,"time":18.715572000000005,"velocity":0.6299212598425197,"duration":0.550457999999999,"quarterNotes":"1.000"},{"name":"G3","midi":55,"time":19.266030000000004,"velocity":0.6299212598425197,"duration":0.550457999999999,"quarterNotes":"1.000"},{"name":"F#3","midi":54,"time":19.816488000000003,"velocity":0.6299212598425197,"duration":0.550457999999999,"quarterNotes":"1.000"},{"name":"A3","midi":57,"time":20.366946000000002,"velocity":0.6299212598425197,"duration":0.550457999999999,"quarterNotes":"1.000"},{"name":"A3","midi":57,"time":20.917404,"velocity":0.6299212598425197,"duration":1.1009160000000016,"quarterNotes":"2.000"},{"name":"B3","midi":59,"time":22.018320000000003,"velocity":0.6299212598425197,"duration":0.550457999999999,"quarterNotes":"1.000"},{"name":"D4","midi":62,"time":22.568778000000002,"velocity":0.6299212598425197,"duration":0.550457999999999,"quarterNotes":"1.000"},{"name":"A3","midi":57,"time":23.119236,"velocity":0.6299212598425197,"duration":1.1009160000000016,"quarterNotes":"2.000"},{"name":"A3","midi":57,"time":24.220152000000002,"velocity":0.6299212598425197,"duration":2.2018319999999996,"quarterNotes":"4.000"},{"name":"A3","midi":57,"time":26.421984000000002,"velocity":0.6299212598425197,"duration":1.1009160000000016,"quarterNotes":"2.000"},{"name":"G3","midi":55,"time":27.522900000000003,"velocity":0.6299212598425197,"duration":0.550457999999999,"quarterNotes":"1.000"},{"name":"G3","midi":55,"time":28.073358000000002,"velocity":0.6299212598425197,"duration":0.550457999999999,"quarterNotes":"1.000"},{"name":"F#3","midi":54,"time":28.623816,"velocity":0.6299212598425197,"duration":0.8256869999999985,"quarterNotes":"1.500"},{"name":"G3","midi":55,"time":29.449503,"velocity":0.6299212598425197,"duration":0.2752289999999995,"quarterNotes":"0.500"},{"name":"A3","midi":57,"time":29.724732,"velocity":0.6299212598425197,"duration":0.550457999999999,"quarterNotes":"1.000"},{"name":"B3","midi":59,"time":30.27519,"velocity":0.6299212598425197,"duration":0.550457999999999,"quarterNotes":"1.000"},{"name":"A3","midi":57,"time":30.825647999999997,"velocity":0.6299212598425197,"duration":1.1009160000000016,"quarterNotes":"2.000"},{"name":"A3","midi":57,"time":31.926564,"velocity":0.6299212598425197,"duration":0.550457999999999,"quarterNotes":"1.000"},{"name":"G3","midi":55,"time":32.477022,"velocity":0.6299212598425197,"duration":0.550457999999999,"quarterNotes":"1.000"},{"name":"F#3","midi":54,"time":33.02748,"velocity":0.6299212598425197,"duration":2.201832000000003,"quarterNotes":"4.000"}],[{"name":"D3","midi":50,"time":0,"velocity":0.6299212598425197,"duration":1.100916,"quarterNotes":"2.000"},{"name":"D3","midi":50,"time":1.100916,"velocity":0.6299212598425197,"duration":0.5504580000000001,"quarterNotes":"1.000"},{"name":"E3","midi":52,"time":1.6513740000000001,"velocity":0.6299212598425197,"duration":0.5504579999999999,"quarterNotes":"1.000"},{"name":"F#3","midi":54,"time":2.201832,"velocity":0.6299212598425197,"duration":1.1009160000000002,"quarterNotes":"2.000"},{"name":"G3","midi":55,"time":3.3027480000000002,"velocity":0.6299212598425197,"duration":0.5504579999999999,"quarterNotes":"1.000"},{"name":"E3","midi":52,"time":3.853206,"velocity":0.6299212598425197,"duration":0.5504579999999999,"quarterNotes":"1.000"},{"name":"D3","midi":50,"time":4.403664,"velocity":0.6299212598425197,"duration":1.1009159999999998,"quarterNotes":"2.000"},{"name":"E3","midi":52,"time":5.50458,"velocity":0.6299212598425197,"duration":1.1009159999999998,"quarterNotes":"2.000"},{"name":"A2","midi":45,"time":6.605496,"velocity":0.6299212598425197,"duration":2.2018320000000005,"quarterNotes":"4.000"},{"name":"D3","midi":50,"time":8.807328,"velocity":0.6299212598425197,"duration":1.1009159999999998,"quarterNotes":"2.000"},{"name":"D3","midi":50,"time":9.908244,"velocity":0.6299212598425197,"duration":0.5504580000000008,"quarterNotes":"1.000"},{"name":"F#3","midi":54,"time":10.458702,"velocity":0.6299212598425197,"duration":0.5504580000000008,"quarterNotes":"1.000"},{"name":"G3","midi":55,"time":11.009160000000001,"velocity":0.6299212598425197,"duration":1.1009159999999998,"quarterNotes":"2.000"},{"name":"F#3","midi":54,"time":12.110076000000001,"velocity":0.6299212598425197,"duration":1.1009159999999998,"quarterNotes":"2.000"},{"name":"E3","midi":52,"time":13.210992000000001,"velocity":0.6299212598425197,"duration":1.1009159999999998,"quarterNotes":"2.000"},{"name":"D3","midi":50,"time":14.311908,"velocity":0.6299212598425197,"duration":1.1009159999999998,"quarterNotes":"2.000"},{"name":"A2","midi":45,"time":15.412824,"velocity":0.6299212598425197,"duration":2.2018319999999996,"quarterNotes":"4.000"},{"name":"D3","midi":50,"time":17.614656,"velocity":0.6299212598425197,"duration":1.1009160000000016,"quarterNotes":"2.000"},{"name":"D3","midi":50,"time":18.715572,"velocity":0.6299212598425197,"duration":0.550457999999999,"quarterNotes":"1.000"},{"name":"C#3","midi":49,"time":19.26603,"velocity":0.6299212598425197,"duration":0.550457999999999,"quarterNotes":"1.000"},{"name":"D3","midi":50,"time":19.816488,"velocity":0.6299212598425197,"duration":1.1009160000000016,"quarterNotes":"2.000"},{"name":"F#3","midi":54,"time":20.917404,"velocity":0.6299212598425197,"duration":1.1009160000000016,"quarterNotes":"2.000"},{"name":"G3","midi":55,"time":22.018320000000003,"velocity":0.6299212598425197,"duration":0.550457999999999,"quarterNotes":"1.000"},{"name":"F#3","midi":54,"time":22.568778000000002,"velocity":0.6299212598425197,"duration":0.550457999999999,"quarterNotes":"1.000"},{"name":"E3","midi":52,"time":23.119236,"velocity":0.6299212598425197,"duration":0.550457999999999,"quarterNotes":"1.000"},{"name":"D3","midi":50,"time":23.669694,"velocity":0.6299212598425197,"duration":0.550457999999999,"quarterNotes":"1.000"},{"name":"A2","midi":45,"time":24.220152,"velocity":0.6299212598425197,"duration":2.2018319999999996,"quarterNotes":"4.000"},{"name":"F#3","midi":54,"time":26.421984,"velocity":0.6299212598425197,"duration":1.1009160000000016,"quarterNotes":"2.000"},{"name":"G3","midi":55,"time":27.5229,"velocity":0.6299212598425197,"duration":0.550457999999999,"quarterNotes":"1.000"},{"name":"E3","midi":52,"time":28.073358,"velocity":0.6299212598425197,"duration":0.550457999999999,"quarterNotes":"1.000"},{"name":"D3","midi":50,"time":28.623815999999998,"velocity":0.6299212598425197,"duration":0.8256869999999985,"quarterNotes":"1.500"},{"name":"E3","midi":52,"time":29.449502999999996,"velocity":0.6299212598425197,"duration":0.2752289999999995,"quarterNotes":"0.500"},{"name":"F#3","midi":54,"time":29.724731999999996,"velocity":0.6299212598425197,"duration":0.550457999999999,"quarterNotes":"1.000"},{"name":"G3","midi":55,"time":30.275189999999995,"velocity":0.6299212598425197,"duration":0.550457999999999,"quarterNotes":"1.000"},{"name":"A3","midi":57,"time":30.825647999999994,"velocity":0.6299212598425197,"duration":1.1009160000000016,"quarterNotes":"2.000"},{"name":"A2","midi":45,"time":31.926563999999996,"velocity":0.6299212598425197,"duration":1.1009160000000016,"quarterNotes":"2.000"},{"name":"D3","midi":50,"time":33.02748,"velocity":0.6299212598425197,"duration":2.201832000000003,"quarterNotes":"4.000"}]]