[[{"name":"G4","midi":67,"time":1.2,"velocity":0.6299212598425197,"duration":0.5999999999999999,"quarterNotes":"1.000"},{"name":"B4","midi":71,"time":1.7999999999999998,"velocity":0.6299212598425197,"duration":1.2000000000000002,"quarterNotes":"2.000"},{"name":"G4","midi":67,"time":3,"velocity":0.6299212598425197,"duration":0.6000000000000001,"quarterNotes":"1.000"},{"name":"A4","midi":69,"time":3.6,"velocity":0.6299212598425197,"duration":1.1999999999999997,"quarterNotes":"2.000"},{"name":"B4","midi":71,"time":4.8,"velocity":0.6299212598425197,"duration":0.5999999999999996,"quarterNotes":"1.000"},{"name":"C5","midi":72,"time":5.3999999999999995,"velocity":0.6299212598425197,"duration":0.5999999999999996,"quarterNotes":"1.000"},{"name":"B4","midi":71,"time":5.999999999999999,"velocity":0.6299212598425197,"duration":0.5999999999999996,"quarterNotes":"1.000"},{"name":"A4","midi":69,"time":6.599999999999999,"velocity":0.6299212598425197,"duration":0.5999999999999996,"quarterNotes":"1.000"},{"name":"G4","midi":67,"time":7.199999999999998,"velocity":0.6299212598425197,"duration":1.2000000000000002,"quarterNotes":"2.000"},{"name":"G4","midi":67,"time":8.399999999999999,"velocity":0.6299212598425197,"duration":0.5999999999999996,"quarterNotes":"1.000"},{"name":"B4","midi":71,"time":8.999999999999998,"velocity":0.6299212598425197,"duration":1.1999999999999993,"quarterNotes":"2.000"},{"name":"C#5","midi":73,"time":10.199999999999998,"velocity":0.6299212598425197,"duration":0.5999999999999996,"quarterNotes":"1.000"},{"name":"D5","midi":74,"time":10.799999999999997,"velocity":0.6299212598425197,"duration":1.1999999999999993,"quarterNotes":"2.000"},{"name":"A4","midi":69,"time":11.999999999999996,"velocity":0.6299212598425197,"duration":0.5999999999999996,"quarterNotes":"1.000"},{"name":"D5","midi":74,"time":12.599999999999996,"velocity":0.6299212598425197,"duration":1.1999999999999993,"quarterNotes":"2.000"},{"name":"C#5","midi":73,"time":13.799999999999995,"velocity":0.6299212598425197,"duration":0.5999999999999996,"quarterNotes":"1.000"},{"name":"D5","midi":74,"time":14.399999999999995,"velocity":0.6299212598425197,"duration":1.1999999999999993,"quarterNotes":"2.000"},{"name":"B4","midi":71,"time":15.599999999999994,"velocity":0.6299212598425197,"duration":0.6000000000000014,"quarterNotes":"1.000"},{"name":"C5","midi":72,"time":16.199999999999996,"velocity":0.6299212598425197,"duration":1.1999999999999993,"quarterNotes":"2.000"},{"name":"D5","midi":74,"time":17.399999999999995,"velocity":0.6299212598425197,"duration":0.6000000000000014,"quarterNotes":"1.000"},{"name":"E5","midi":76,"time":17.999999999999996,"velocity":0.6299212598425197,"duration":1.1999999999999993,"quarterNotes":"2.000"},{"name":"D5","midi":74,"time":19.199999999999996,"velocity":0.6299212598425197,"duration":0.6000000000000014,"quarterNotes":"1.000"},{"name":"C5","midi":72,"time":19.799999999999997,"velocity":0.6299212598425197,"duration":1.1999999999999993,"quarterNotes":"2.000"},{"name":"B4","midi":71,"time":20.999999999999996,"velocity":0.6299212598425197,"duration":0.6000000000000014,"quarterNotes":"1.000"},{"name":"A4","midi":69,"time":21.599999999999998,"velocity":0.6299212598425197,"duration":1.1999999999999993,"quarterNotes":"2.000"},{"name":"D5","midi":74,"time":22.799999999999997,"velocity":0.6299212598425197,"duration":0.6000000000000014,"quarterNotes":"1.000"},{"name":"C5","midi":72,"time":23.4,"velocity":0.6299212598425197,"duration":1.1999999999999993,"quarterNotes":"2.000"},{"name":"B4","midi":71,"time":24.599999999999998,"velocity":0.6299212598425197,"duration":0.6000000000000014,"quarterNotes":"1.000"},{"name":"A4","midi":69,"time":25.2,"velocity":0.6299212598425197,"duration":1.1999999999999993,"quarterNotes":"2.000"},{"name":"G4","midi":67,"time":26.4,"velocity":0.6299212598425197,"duration":0.6000000000000014,"quarterNotes":"1.000"},{"name":"C5","midi":72,"time":27,"velocity":0.6299212598425197,"duration":0.6000000000000014,"quarterNotes":"1.000"},{"name":"B4","midi":71,"time":27.6,"velocity":0.6299212598425197,"duration":0.6000000000000014,"quarterNotes":"1.000"},{"name":"A4","midi":69,"time":28.200000000000003,"velocity":0.6299212598425197,"duration":0.6000000000000014,"quarterNotes":"1.000"},{"name":"G4","midi":67,"time":28.800000000000004,"velocity":0.6299212598425197,"duration":1.8000000000000007,"quarterNotes":"3.000"}],[{"name":"D4","midi":62,"time":1.2,"velocity":0.6299212598425197,"duration":0.5999999999999999,"quarterNotes":"1.000"},{"name":"D4","midi":62,"time":1.7999999999999998,"velocity":0.6299212598425197,"duration":1.2000000000000002,"quarterNotes":"2.000"},{"name":"E4","midi":64,"time":3,"velocity":0.6299212598425197,"duration":0.6000000000000001,"quarterNotes":"1.000"},{"name":"F#4","midi":66,"time":3.6,"velocity":0.6299212598425197,"duration":1.1999999999999997,"quarterNotes":"2.000"},{"name":"G4","midi":67,"time":4.8,"velocity":0.6299212598425197,"duration":0.5999999999999996,"quarterNotes":"1.000"},{"name":"G4","midi":67,"time":5.3999999999999995,"velocity":0.6299212598425197,"duration":1.2000000000000002,"quarterNotes":"2.000"},{"name":"F#4","midi":66,"time":6.6,"velocity":0.6299212598425197,"duration":0.5999999999999996,"quarterNotes":"1.000"},{"name":"G4","midi":67,"time":7.199999999999999,"velocity":0.6299212598425197,"duration":1.1999999999999993,"quarterNotes":"2.000"},{"name":"D4","midi":62,"time":8.399999999999999,"velocity":0.6299212598425197,"duration":0.5999999999999996,"quarterNotes":"1.000"},{"name":"G4","midi":67,"time":8.999999999999998,"velocity":0.6299212598425197,"duration":1.1999999999999993,"quarterNotes":"2.000"},{"name":"G4","midi":67,"time":10.199999999999998,"velocity":0.6299212598425197,"duration":0.5999999999999996,"quarterNotes":"1.000"},{"name":"F#4","midi":66,"time":10.799999999999997,"velocity":0.6299212598425197,"duration":0.5999999999999996,"quarterNotes":"1.000"},{"name":"G4","midi":67,"time":11.399999999999997,"velocity":0.6299212598425197,"duration":0.5999999999999996,"quarterNotes":"1.000"},{"name":"A4","midi":69,"time":11.999999999999996,"velocity":0.6299212598425197,"duration":0.5999999999999996,"quarterNotes":"1.000"},{"name":"G4","midi":67,"time":12.599999999999996,"velocity":0.6299212598425197,"duration":0.5999999999999996,"quarterNotes":"1.000"},{"name":"F#4","midi":66,"time":13.199999999999996,"velocity":0.6299212598425197,"duration":0.5999999999999996,"quarterNotes":"1.000"},{"name":"E4","midi":64,"time":13.799999999999995,"velocity":0.6299212598425197,"duration":0.5999999999999996,"quarterNotes":"1.000"},{"name":"F#4","midi":66,"time":14.399999999999995,"velocity":0.6299212598425197,"duration":1.1999999999999993,"quarterNotes":"2.000"},{"name":"D4","midi":62,"time":15.599999999999994,"velocity":0.6299212598425197,"duration":0.6000000000000014,"quarterNotes":"1.000"},{"name":"G4","midi":67,"time":16.199999999999996,"velocity":0.6299212598425197,"duration":1.1999999999999993,"quarterNotes":"2.000"},{"name":"G4","midi":67,"time":17.399999999999995,"velocity":0.6299212598425197,"duration":0.6000000000000014,"quarterNotes":"1.000"},{"name":"G4","midi":67,"time":17.999999999999996,"velocity":0.6299212598425197,"duration":1.1999999999999993,"quarterNotes":"2.000"},{"name":"G4","midi":67,"time":19.199999999999996,"velocity":0.6299212598425197,"duration":0.6000000000000014,"quarterNotes":"1.000"},{"name":"G4","midi":67,"time":19.799999999999997,"velocity":0.6299212598425197,"duration":0.6000000000000014,"quarterNotes":"1.000"},{"name":"F#4","midi":66,"time":20.4,"velocity":0.6299212598425197,"duration":0.6000000000000014,"quarterNotes":"1.000"},{"name":"G4","midi":67,"time":21,"velocity":0.6299212598425197,"duration":0.6000000000000014,"quarterNotes":"1.000"},{"name":"F#4","midi":66,"time":21.6,"velocity":0.6299212598425197,"duration":1.1999999999999993,"quarterNotes":"2.000"},{"name":"G4","midi":67,"time":22.8,"velocity":0.6299212598425197,"duration":0.6000000000000014,"quarterNotes":"1.000"},{"name":"F#4","midi":66,"time":23.400000000000002,"velocity":0.6299212598425197,"duration":1.1999999999999993,"quarterNotes":"2.000"},{"name":"G4","midi":67,"time":24.6,"velocity":0.6299212598425197,"duration":0.6000000000000014,"quarterNotes":"1.000"},{"name":"F#4","midi":66,"time":25.200000000000003,"velocity":0.6299212598425197,"duration":1.1999999999999993,"quarterNotes":"2.000"},{"name":"G4","midi":67,"time":26.400000000000002,"velocity":0.6299212598425197,"duration":0.6000000000000014,"quarterNotes":"1.000"},{"name":"A4","midi":69,"time":27.000000000000004,"velocity":0.6299212598425197,"duration":0.6000000000000014,"quarterNotes":"1.000"},{"name":"G4","midi":67,"time":27.600000000000005,"velocity":0.6299212598425197,"duration":0.6000000000000014,"quarterNotes":"1.000"},{"name":"F#4","midi":66,"time":28.200000000000006,"velocity":0.6299212598425197,"duration":0.6000000000000014,"quarterNotes":"1.000"},{"name":"G4","midi":67,"time":28.800000000000008,"velocity":0.6299212598425197,"duration":1.8000000000000007,"quarterNotes":"3.000"}],[{"name":"B3","midi":59,"time":1.2,"velocity":0.6299212598425197,"duration":0.5999999999999999,"quarterNotes":"1.000"},{"name":"G3","midi":55,"time":1.7999999999999998,"velocity":0.6299212598425197,"duration":1.2000000000000002,"quarterNotes":"2.000"},{"name":"B3","midi":59,"time":3,"velocity":0.6299212598425197,"duration":0.6000000000000001,"quarterNotes":"1.000"},{"name":"D4","midi":62,"time":3.6,"velocity":0.6299212598425197,"duration":1.1999999999999997,"quarterNotes":"2.000"},{"name":"D4","midi":62,"time":4.8,"velocity":0.6299212598425197,"duration":0.5999999999999996,"quarterNotes":"1.000"},{"name":"E4","midi":64,"time":5.3999999999999995,"velocity":0.6299212598425197,"duration":0.5999999999999996,"quarterNotes":"1.000"},{"name":"D4","midi":62,"time":5.999999999999999,"velocity":0.6299212598425197,"duration":0.5999999999999996,"quarterNotes":"1.000"},{"name":"C4","midi":60,"time":6.599999999999999,"velocity":0.6299212598425197,"duration":0.5999999999999996,"quarterNotes":"1.000"},{"name":"B3","midi":59,"time":7.199999999999998,"velocity":0.6299212598425197,"duration":1.2000000000000002,"quarterNotes":"2.000"},{"name":"B3","midi":59,"time":8.399999999999999,"velocity":0.6299212598425197,"duration":0.5999999999999996,"quarterNotes":"1.000"},{"name":"D4","midi":62,"time":8.999999999999998,"velocity":0.6299212598425197,"duration":1.1999999999999993,"quarterNotes":"2.000"},{"name":"A3","midi":57,"time":10.199999999999998,"velocity":0.6299212598425197,"duration":0.5999999999999996,"quarterNotes":"1.000"},{"name":"A3","midi":57,"time":10.799999999999997,"velocity":0.6299212598425197,"duration":1.1999999999999993,"quarterNotes":"2.000"},{"name":"D4","midi":62,"time":11.999999999999996,"velocity":0.6299212598425197,"duration":0.5999999999999996,"quarterNotes":"1.000"},{"name":"B3","midi":59,"time":12.599999999999996,"velocity":0.6299212598425197,"duration":0.5999999999999996,"quarterNotes":"1.000"},{"name":"A3","midi":57,"time":13.199999999999996,"velocity":0.6299212598425197,"duration":0.5999999999999996,"quarterNotes":"1.000"},{"name":"A3","midi":57,"time":13.799999999999995,"velocity":0.6299212598425197,"duration":0.5999999999999996,"quarterNotes":"1.000"},{"name":"A3","midi":57,"time":14.399999999999995,"velocity":0.6299212598425197,"duration":1.1999999999999993,"quarterNotes":"2.000"},{"name":"G3","midi":55,"time":15.599999999999994,"velocity":0.6299212598425197,"duration":0.6000000000000014,"quarterNotes":"1.000"},{"name":"G3","midi":55,"time":16.199999999999996,"velocity":0.6299212598425197,"duration":0.6000000000000014,"quarterNotes":"1.000"},{"name":"C4","midi":60,"time":16.799999999999997,"velocity":0.6299212598425197,"duration":0.6000000000000014,"quarterNotes":"1.000"},{"name":"B3","midi":59,"time":17.4,"velocity":0.6299212598425197,"duration":0.6000000000000014,"quarterNotes":"1.000"},{"name":"C4","midi":60,"time":18,"velocity":0.6299212598425197,"duration":1.1999999999999993,"quarterNotes":"2.000"},{"name":"D4","midi":62,"time":19.2,"velocity":0.6299212598425197,"duration":0.6000000000000014,"quarterNotes":"1.000"},{"name":"E4","midi":64,"time":19.8,"velocity":0.6299212598425197,"duration":0.6000000000000014,"quarterNotes":"1.000"},{"name":"D4","midi":62,"time":20.400000000000002,"velocity":0.6299212598425197,"duration":0.6000000000000014,"quarterNotes":"1.000"},{"name":"D4","midi":62,"time":21.000000000000004,"velocity":0.6299212598425197,"duration":0.6000000000000014,"quarterNotes":"1.000"},{"name":"D4","midi":62,"time":21.600000000000005,"velocity":0.6299212598425197,"duration":1.1999999999999993,"quarterNotes":"2.000"},{"name":"D4","midi":62,"time":22.800000000000004,"velocity":0.6299212598425197,"duration":0.6000000000000014,"quarterNotes":"1.000"},{"name":"D4","midi":62,"time":23.400000000000006,"velocity":0.6299212598425197,"duration":1.1999999999999993,"quarterNotes":"2.000"},{"name":"D4","midi":62,"time":24.600000000000005,"velocity":0.6299212598425197,"duration":0.6000000000000014,"quarterNotes":"1.000"},{"name":"D4","midi":62,"time":25.200000000000006,"velocity":0.6299212598425197,"duration":0.6000000000000014,"quarterNotes":"1.000"},{"name":"C4","midi":60,"time":25.800000000000008,"velocity":0.6299212598425197,"duration":0.6000000000000014,"quarterNotes":"1.000"},{"name":"B3","midi":59,"time":26.40000000000001,"velocity":0.6299212598425197,"duration":0.6000000000000014,"quarterNotes":"1.000"},{"name":"E4","midi":64,"time":27.00000000000001,"velocity":0.6299212598425197,"duration":0.6000000000000014,"quarterNotes":"1.000"},{"name":"D4","midi":62,"time":27.600000000000012,"velocity":0.6299212598425197,"duration":0.6000000000000014,"quarterNotes":"1.000"},{"name":"C4","midi":60,"time":28.200000000000014,"velocity":0.6299212598425197,"duration":0.6000000000000014,"quarterNotes":"1.000"},{"name":"B3","midi":59,"time":28.800000000000015,"velocity":0.6299212598425197,"duration":1.8000000000000007,"quarterNotes":"3.000"}],[{"name":"G3","midi":55,"time":1.2,"velocity":0.6299212598425197,"duration":0.5999999999999999,"quarterNotes":"1.000"},{"name":"G3","midi":55,"time":1.7999999999999998,"velocity":0.6299212598425197,"duration":1.2000000000000002,"quarterNotes":"2.000"},{"name":"E3","midi":52,"time":3,"velocity":0.6299212598425197,"duration":0.6000000000000001,"quarterNotes":"1.000"},{"name":"D3","midi":50,"time":3.6,"velocity":0.6299212598425197,"duration":1.1999999999999997,"quarterNotes":"2.000"},{"name":"G3","midi":55,"time":4.8,"velocity":0.6299212598425197,"duration":0.5999999999999996,"quarterNotes":"1.000"},{"name":"C3","midi":48,"time":5.3999999999999995,"velocity":0.6299212598425197,"duration":0.5999999999999996,"quarterNotes":"1.000"},{"name":"D3","midi":50,"time":5.999999999999999,"velocity":0.6299212598425197,"duration":0.5999999999999996,"quarterNotes":"1.000"},{"name":"D3","midi":50,"time":6.599999999999999,"velocity":0.6299212598425197,"duration":0.5999999999999996,"quarterNotes":"1.000"},{"name":"G2","midi":43,"time":7.199999999999998,"velocity":0.6299212598425197,"duration":1.2000000000000002,"quarterNotes":"2.000"},{"name":"G3","midi":55,"time":8.399999999999999,"velocity":0.6299212598425197,"duration":0.5999999999999996,"quarterNotes":"1.000"},{"name":"G3","midi":55,"time":8.999999999999998,"velocity":0.6299212598425197,"duration":1.1999999999999993,"quarterNotes":"2.000"},{"name":"E3","midi":52,"time":10.199999999999998,"velocity":0.6299212598425197,"duration":0.5999999999999996,"quarterNotes":"1.000"},{"name":"D3","midi":50,"time":10.799999999999997,"velocity":0.6299212598425197,"duration":0.5999999999999996,"quarterNotes":"1.000"},{"name":"E3","midi":52,"time":11.399999999999997,"velocity":0.6299212598425197,"duration":0.5999999999999996,"quarterNotes":"1.000"},{"name":"F#3","midi":54,"time":11.999999999999996,"velocity":0.6299212598425197,"duration":0.5999999999999996,"quarterNotes":"1.000"},{"name":"G3","midi":55,"time":12.599999999999996,"velocity":0.6299212598425197,"duration":0.5999999999999996,"quarterNotes":"1.000"},{"name":"A3","midi":57,"time":13.199999999999996,"velocity":0.6299212598425197,"duration":0.5999999999999996,"quarterNotes":"1.000"},{"name":"A2","midi":45,"time":13.799999999999995,"velocity":0.6299212598425197,"duration":0.5999999999999996,"quarterNotes":"1.000"},{"name":"D3","midi":50,"time":14.399999999999995,"velocity":0.6299212598425197,"duration":1.1999999999999993,"quarterNotes":"2.000"},{"name":"G3","midi":55,"time":15.599999999999994,"velocity":0.6299212598425197,"duration":0.6000000000000014,"quarterNotes":"1.000"},{"name":"E3","midi":52,"time":16.199999999999996,"velocity":0.6299212598425197,"duration":1.1999999999999993,"quarterNotes":"2.000"},{"name":"D3","midi":50,"time":17.399999999999995,"velocity":0.6299212598425197,"duration":0.6000000000000014,"quarterNotes":"1.000"},{"name":"C3","midi":48,"time":17.999999999999996,"velocity":0.6299212598425197,"duration":1.1999999999999993,"quarterNotes":"2.000"},{"name":"B2","midi":47,"time":19.199999999999996,"velocity":0.6299212598425197,"duration":0.6000000000000014,"quarterNotes":"1.000"},{"name":"A2","midi":45,"time":19.799999999999997,"velocity":0.6299212598425197,"duration":1.1999999999999993,"quarterNotes":"2.000"},{"name":"G2","midi":43,"time":20.999999999999996,"velocity":0.6299212598425197,"duration":0.6000000000000014,"quarterNotes":"1.000"},{"name":"D3","midi":50,"time":21.599999999999998,"velocity":0.6299212598425197,"duration":1.1999999999999993,"quarterNotes":"2.000"},{"name":"B3","midi":59,"time":22.799999999999997,"velocity":0.6299212598425197,"duration":0.6000000000000014,"quarterNotes":"1.000"},{"name":"A3","midi":57,"time":23.4,"velocity":0.6299212598425197,"duration":1.1999999999999993,"quarterNotes":"2.000"},{"name":"G3","midi":55,"time":24.599999999999998,"velocity":0.6299212598425197,"duration":0.6000000000000014,"quarterNotes":"1.000"},{"name":"D3","midi":50,"time":25.2,"velocity":0.6299212598425197,"duration":1.1999999999999993,"quarterNotes":"2.000"},{"name":"E3","midi":52,"time":26.4,"velocity":0.6299212598425197,"duration":0.6000000000000014,"quarterNotes":"1.000"},{"name":"C3","midi":48,"time":27,"velocity":0.6299212598425197,"duration":0.6000000000000014,"quarterNotes":"1.000"},{"name":"D3","midi":50,"time":27.6,"velocity":0.6299212598425197,"duration":0.6000000000000014,"quarterNotes":"1.000"},{"name":"D3","midi":50,"time":28.200000000000003,"velocity":0.6299212598425197,"duration":0.6000000000000014,"quarterNotes":"1.000"},{"name":"G2","midi":43,"time":28.800000000000004,"velocity":0.6299212598425197,"duration":1.8000000000000007,"quarterNotes":"3.000"}]]