[[{"name":"G4","midi":67,"time":1.7391299999999998,"velocity":0.6299212598425197,"duration":0.8695650000000001,"quarterNotes":"1.000"},{"name":"G4","midi":67,"time":2.608695,"velocity":0.6299212598425197,"duration":0.43478249999999985,"quarterNotes":"0.500"},{"name":"G4","midi":67,"time":3.0434775,"velocity":0.6299212598425197,"duration":0.43478249999999985,"quarterNotes":"0.500"},{"name":"G4","midi":67,"time":3.4782599999999997,"velocity":0.6299212598425197,"duration":0.43478249999999985,"quarterNotes":"0.500"},{"name":"G4","midi":67,"time":3.9130424999999995,"velocity":0.6299212598425197,"duration":0.43478249999999985,"quarterNotes":"0.500"},{"name":"F#4","midi":66,"time":4.347824999999999,"velocity":0.6299212598425197,"duration":0.43478249999999985,"quarterNotes":"0.500"},{"name":"G4","midi":67,"time":4.782607499999999,"velocity":0.6299212598425197,"duration":0.43478249999999985,"quarterNotes":"0.500"},{"name":"A4","midi":69,"time":5.217389999999999,"velocity":0.6299212598425197,"duration":1.7391300000000003,"quarterNotes":"2.000"},{"name":"A4","midi":69,"time":6.956519999999999,"velocity":0.6299212598425197,"duration":0.8695649999999997,"quarterNotes":"1.000"},{"name":"A4","midi":69,"time":7.826084999999999,"velocity":0.6299212598425197,"duration":0.43478250000000074,"quarterNotes":"0.500"},{"name":"A4","midi":69,"time":8.2608675,"velocity":0.6299212598425197,"duration":0.43478250000000074,"quarterNotes":"0.500"},{"name":"A4","midi":69,"time":8.69565,"velocity":0.6299212598425197,"duration":0.8695649999999997,"quarterNotes":"1.000"},{"name":"A4","midi":69,"time":9.565215,"velocity":0.6299212598425197,"duration":0.8695649999999997,"quarterNotes":"1.000"},{"name":"B4","midi":71,"time":10.43478,"velocity":0.6299212598425197,"duration":1.7391299999999994,"quarterNotes":"2.000"},{"name":"B4","midi":71,"time":12.17391,"velocity":0.6299212598425197,"duration":0.8695649999999997,"quarterNotes":"1.000"},{"name":"B4","midi":71,"time":13.043474999999999,"velocity":0.6299212598425197,"duration":0.43478250000000074,"quarterNotes":"0.500"},{"name":"B4","midi":71,"time":13.4782575,"velocity":0.6299212598425197,"duration":0.43478250000000074,"quarterNotes":"0.500"},{"name":"B4","midi":71,"time":13.91304,"velocity":0.6299212598425197,"duration":0.43478250000000074,"quarterNotes":"0.500"},{"name":"B4","midi":71,"time":14.347822500000001,"velocity":0.6299212598425197,"duration":0.43478250000000074,"quarterNotes":"0.500"},{"name":"A4","midi":69,"time":14.782605000000002,"velocity":0.6299212598425197,"duration":0.43478250000000074,"quarterNotes":"0.500"},{"name":"B4","midi":71,"time":15.217387500000003,"velocity":0.6299212598425197,"duration":0.43478250000000074,"quarterNotes":"0.500"},{"name":"C5","midi":72,"time":15.652170000000003,"velocity":0.6299212598425197,"duration":1.7391300000000012,"quarterNotes":"2.000"},{"name":"A4","midi":69,"time":17.391300000000005,"velocity":0.6299212598425197,"duration":0.8695650000000015,"quarterNotes":"1.000"},{"name":"B4","midi":71,"time":18.260865000000006,"velocity":0.6299212598425197,"duration":0.43478250000000074,"quarterNotes":"0.500"},{"name":"A4","midi":69,"time":18.695647500000007,"velocity":0.6299212598425197,"duration":0.43478250000000074,"quarterNotes":"0.500"},{"name":"G4","midi":67,"time":19.130430000000008,"velocity":0.6299212598425197,"duration":0.8695650000000015,"quarterNotes":"1.000"},{"name":"F#4","midi":66,"time":19.99999500000001,"velocity":0.6299212598425197,"duration":0.8695650000000015,"quarterNotes":"1.000"},{"name":"G4","midi":67,"time":20.86956000000001,"velocity":0.6299212598425197,"duration":1.7391299999999994,"quarterNotes":"2.000"},{"name":"D4","midi":62,"time":22.60869000000001,"velocity":0.6299212598425197,"duration":0.8695650000000015,"quarterNotes":"1.000"},{"name":"E4","midi":64,"time":23.47825500000001,"velocity":0.6299212598425197,"duration":0.43478250000000074,"quarterNotes":"0.500"},{"name":"G4","midi":67,"time":23.913037500000012,"velocity":0.6299212598425197,"duration":0.43478250000000074,"quarterNotes":"0.500"},{"name":"D4","midi":62,"time":24.347820000000013,"velocity":0.6299212598425197,"duration":0.8695650000000015,"quarterNotes":"1.000"},{"name":"D4","midi":62,"time":25.217385000000014,"velocity":0.6299212598425197,"duration":0.8695650000000015,"quarterNotes":"1.000"},{"name":"D4","midi":62,"time":26.086950000000016,"velocity":0.6299212598425197,"duration":2.608695000000001,"quarterNotes":"3.000"}],[{"name":"D4","midi":62,"time":1.7391299999999998,"velocity":0.6299212598425197,"duration":0.8695650000000001,"quarterNotes":"1.000"},{"name":"D4","midi":62,"time":2.608695,"velocity":0.6299212598425197,"duration":0.43478249999999985,"quarterNotes":"0.500"},{"name":"D4","midi":62,"time":3.0434775,"velocity":0.6299212598425197,"duration":0.43478249999999985,"quarterNotes":"0.500"},{"name":"D4","midi":62,"time":3.4782599999999997,"velocity":0.6299212598425197,"duration":0.43478249999999985,"quarterNotes":"0.500"},{"name":"D4","midi":62,"time":3.9130424999999995,"velocity":0.6299212598425197,"duration":0.43478249999999985,"quarterNotes":"0.500"},{"name":"D4","midi":62,"time":4.347824999999999,"velocity":0.6299212598425197,"duration":0.43478249999999985,"quarterNotes":"0.500"},{"name":"D4","midi":62,"time":4.782607499999999,"velocity":0.6299212598425197,"duration":0.43478249999999985,"quarterNotes":"0.500"},{"name":"F#4","midi":66,"time":5.217389999999999,"velocity":0.6299212598425197,"duration":1.7391300000000003,"quarterNotes":"2.000"},{"name":"F#4","midi":66,"time":6.956519999999999,"velocity":0.6299212598425197,"duration":0.8695649999999997,"quarterNotes":"1.000"},{"name":"F#4","midi":66,"time":7.826084999999999,"velocity":0.6299212598425197,"duration":0.43478250000000074,"quarterNotes":"0.500"},{"name":"F#4","midi":66,"time":8.2608675,"velocity":0.6299212598425197,"duration":0.43478250000000074,"quarterNotes":"0.500"},{"name":"F#4","midi":66,"time":8.69565,"velocity":0.6299212598425197,"duration":0.8695649999999997,"quarterNotes":"1.000"},{"name":"F#4","midi":66,"time":9.565215,"velocity":0.6299212598425197,"duration":0.8695649999999997,"quarterNotes":"1.000"},{"name":"G4","midi":67,"time":10.43478,"velocity":0.6299212598425197,"duration":1.7391299999999994,"quarterNotes":"2.000"},{"name":"G4","midi":67,"time":12.17391,"velocity":0.6299212598425197,"duration":0.8695649999999997,"quarterNotes":"1.000"},{"name":"G4","midi":67,"time":13.043474999999999,"velocity":0.6299212598425197,"duration":0.43478250000000074,"quarterNotes":"0.500"},{"name":"G4","midi":67,"time":13.4782575,"velocity":0.6299212598425197,"duration":0.43478250000000074,"quarterNotes":"0.500"},{"name":"G4","midi":67,"time":13.91304,"velocity":0.6299212598425197,"duration":0.43478250000000074,"quarterNotes":"0.500"},{"name":"G4","midi":67,"time":14.347822500000001,"velocity":0.6299212598425197,"duration":0.43478250000000074,"quarterNotes":"0.500"},{"name":"F#4","midi":66,"time":14.782605000000002,"velocity":0.6299212598425197,"duration":0.43478250000000074,"quarterNotes":"0.500"},{"name":"G4","midi":67,"time":15.217387500000003,"velocity":0.6299212598425197,"duration":0.43478250000000074,"quarterNotes":"0.500"},{"name":"G4","midi":67,"time":15.652170000000003,"velocity":0.6299212598425197,"duration":1.7391300000000012,"quarterNotes":"2.000"},{"name":"F#4","midi":66,"time":17.391300000000005,"velocity":0.6299212598425197,"duration":0.8695650000000015,"quarterNotes":"1.000"},{"name":"G4","midi":67,"time":18.260865000000006,"velocity":0.6299212598425197,"duration":0.43478250000000074,"quarterNotes":"0.500"},{"name":"E4","midi":64,"time":18.695647500000007,"velocity":0.6299212598425197,"duration":0.43478250000000074,"quarterNotes":"0.500"},{"name":"D4","midi":62,"time":19.130430000000008,"velocity":0.6299212598425197,"duration":0.8695650000000015,"quarterNotes":"1.000"},{"name":"D4","midi":62,"time":19.99999500000001,"velocity":0.6299212598425197,"duration":0.8695650000000015,"quarterNotes":"1.000"},{"name":"D4","midi":62,"time":20.86956000000001,"velocity":0.6299212598425197,"duration":1.7391299999999994,"quarterNotes":"2.000"},{"name":"D4","midi":62,"time":22.60869000000001,"velocity":0.6299212598425197,"duration":0.8695650000000015,"quarterNotes":"1.000"},{"name":"C4","midi":60,"time":23.47825500000001,"velocity":0.6299212598425197,"duration":0.43478250000000074,"quarterNotes":"0.500"},{"name":"C4","midi":60,"time":23.913037500000012,"velocity":0.6299212598425197,"duration":0.43478250000000074,"quarterNotes":"0.500"},{"name":"B3","midi":59,"time":24.347820000000013,"velocity":0.6299212598425197,"duration":0.8695650000000015,"quarterNotes":"1.000"},{"name":"A3","midi":57,"time":25.217385000000014,"velocity":0.6299212598425197,"duration":0.8695650000000015,"quarterNotes":"1.000"},{"name":"B3","midi":59,"time":26.086950000000016,"velocity":0.6299212598425197,"duration":2.608695000000001,"quarterNotes":"3.000"}],[{"name":"B3","midi":59,"time":1.7391299999999998,"velocity":0.6299212598425197,"duration":0.8695650000000001,"quarterNotes":"1.000"},{"name":"B3","midi":59,"time":2.608695,"velocity":0.6299212598425197,"duration":0.43478249999999985,"quarterNotes":"0.500"},{"name":"B3","midi":59,"time":3.0434775,"velocity":0.6299212598425197,"duration":0.43478249999999985,"quarterNotes":"0.500"},{"name":"B3","midi":59,"time":3.4782599999999997,"velocity":0.6299212598425197,"duration":0.43478249999999985,"quarterNotes":"0.500"},{"name":"B3","midi":59,"time":3.9130424999999995,"velocity":0.6299212598425197,"duration":0.43478249999999985,"quarterNotes":"0.500"},{"name":"C4","midi":60,"time":4.347824999999999,"velocity":0.6299212598425197,"duration":0.43478249999999985,"quarterNotes":"0.500"},{"name":"B3","midi":59,"time":4.782607499999999,"velocity":0.6299212598425197,"duration":0.43478249999999985,"quarterNotes":"0.500"},{"name":"D4","midi":62,"time":5.217389999999999,"velocity":0.6299212598425197,"duration":1.7391300000000003,"quarterNotes":"2.000"},{"name":"D4","midi":62,"time":6.956519999999999,"velocity":0.6299212598425197,"duration":0.8695649999999997,"quarterNotes":"1.000"},{"name":"D4","midi":62,"time":7.826084999999999,"velocity":0.6299212598425197,"duration":0.43478250000000074,"quarterNotes":"0.500"},{"name":"D4","midi":62,"time":8.2608675,"velocity":0.6299212598425197,"duration":0.43478250000000074,"quarterNotes":"0.500"},{"name":"D4","midi":62,"time":8.69565,"velocity":0.6299212598425197,"duration":0.8695649999999997,"quarterNotes":"1.000"},{"name":"D4","midi":62,"time":9.565215,"velocity":0.6299212598425197,"duration":0.8695649999999997,"quarterNotes":"1.000"},{"name":"D4","midi":62,"time":10.43478,"velocity":0.6299212598425197,"duration":1.7391299999999994,"quarterNotes":"2.000"},{"name":"D4","midi":62,"time":12.17391,"velocity":0.6299212598425197,"duration":0.8695649999999997,"quarterNotes":"1.000"},{"name":"D4","midi":62,"time":13.043474999999999,"velocity":0.6299212598425197,"duration":0.43478250000000074,"quarterNotes":"0.500"},{"name":"D4","midi":62,"time":13.4782575,"velocity":0.6299212598425197,"duration":0.43478250000000074,"quarterNotes":"0.500"},{"name":"D4","midi":62,"time":13.91304,"velocity":0.6299212598425197,"duration":0.43478250000000074,"quarterNotes":"0.500"},{"name":"D4","midi":62,"time":14.347822500000001,"velocity":0.6299212598425197,"duration":0.43478250000000074,"quarterNotes":"0.500"},{"name":"D4","midi":62,"time":14.782605000000002,"velocity":0.6299212598425197,"duration":0.43478250000000074,"quarterNotes":"0.500"},{"name":"D4","midi":62,"time":15.217387500000003,"velocity":0.6299212598425197,"duration":0.43478250000000074,"quarterNotes":"0.500"},{"name":"E4","midi":64,"time":15.652170000000003,"velocity":0.6299212598425197,"duration":1.7391300000000012,"quarterNotes":"2.000"},{"name":"D4","midi":62,"time":17.391300000000005,"velocity":0.6299212598425197,"duration":0.8695650000000015,"quarterNotes":"1.000"},{"name":"D4","midi":62,"time":18.260865000000006,"velocity":0.6299212598425197,"duration":0.43478250000000074,"quarterNotes":"0.500"},{"name":"C4","midi":60,"time":18.695647500000007,"velocity":0.6299212598425197,"duration":0.43478250000000074,"quarterNotes":"0.500"},{"name":"B3","midi":59,"time":19.130430000000008,"velocity":0.6299212598425197,"duration":0.8695650000000015,"quarterNotes":"1.000"},{"name":"A3","midi":57,"time":19.99999500000001,"velocity":0.6299212598425197,"duration":0.8695650000000015,"quarterNotes":"1.000"},{"name":"B3","midi":59,"time":20.86956000000001,"velocity":0.6299212598425197,"duration":1.7391299999999994,"quarterNotes":"2.000"},{"name":"G3","midi":55,"time":22.60869000000001,"velocity":0.6299212598425197,"duration":0.8695650000000015,"quarterNotes":"1.000"},{"name":"G3","midi":55,"time":23.47825500000001,"velocity":0.6299212598425197,"duration":0.43478250000000074,"quarterNotes":"0.500"},{"name":"E3","midi":52,"time":23.913037500000012,"velocity":0.6299212598425197,"duration":0.43478250000000074,"quarterNotes":"0.500"},{"name":"G3","midi":55,"time":24.347820000000013,"velocity":0.6299212598425197,"duration":0.8695650000000015,"quarterNotes":"1.000"},{"name":"F#3","midi":54,"time":25.217385000000014,"velocity":0.6299212598425197,"duration":0.8695650000000015,"quarterNotes":"1.000"},{"name":"G3","midi":55,"time":26.086950000000016,"velocity":0.6299212598425197,"duration":2.608695000000001,"quarterNotes":"3.000"}],[{"name":"G3","midi":55,"time":1.7391299999999998,"velocity":0.6299212598425197,"duration":0.8695650000000001,"quarterNotes":"1.000"},{"name":"G3","midi":55,"time":2.608695,"velocity":0.6299212598425197,"duration":0.43478249999999985,"quarterNotes":"0.500"},{"name":"G3","midi":55,"time":3.0434775,"velocity":0.6299212598425197,"duration":0.43478249999999985,"quarterNotes":"0.500"},{"name":"G3","midi":55,"time":3.4782599999999997,"velocity":0.6299212598425197,"duration":0.43478249999999985,"quarterNotes":"0.500"},{"name":"G3","midi":55,"time":3.9130424999999995,"velocity":0.6299212598425197,"duration":0.43478249999999985,"quarterNotes":"0.500"},{"name":"A3","midi":57,"time":4.347824999999999,"velocity":0.6299212598425197,"duration":0.43478249999999985,"quarterNotes":"0.500"},{"name":"G3","midi":55,"time":4.782607499999999,"velocity":0.6299212598425197,"duration":0.43478249999999985,"quarterNotes":"0.500"},{"name":"D3","midi":50,"time":5.217389999999999,"velocity":0.6299212598425197,"duration":1.7391300000000003,"quarterNotes":"2.000"},{"name":"D3","midi":50,"time":6.956519999999999,"velocity":0.6299212598425197,"duration":0.8695649999999997,"quarterNotes":"1.000"},{"name":"D3","midi":50,"time":7.826084999999999,"velocity":0.6299212598425197,"duration":0.43478250000000074,"quarterNotes":"0.500"},{"name":"D3","midi":50,"time":8.2608675,"velocity":0.6299212598425197,"duration":0.43478250000000074,"quarterNotes":"0.500"},{"name":"D3","midi":50,"time":8.69565,"velocity":0.6299212598425197,"duration":0.8695649999999997,"quarterNotes":"1.000"},{"name":"D3","midi":50,"time":9.565215,"velocity":0.6299212598425197,"duration":0.8695649999999997,"quarterNotes":"1.000"},{"name":"G3","midi":55,"time":10.43478,"velocity":0.6299212598425197,"duration":1.7391299999999994,"quarterNotes":"2.000"},{"name":"G3","midi":55,"time":12.17391,"velocity":0.6299212598425197,"duration":0.8695649999999997,"quarterNotes":"1.000"},{"name":"G3","midi":55,"time":13.043474999999999,"velocity":0.6299212598425197,"duration":0.43478250000000074,"quarterNotes":"0.500"},{"name":"G3","midi":55,"time":13.4782575,"velocity":0.6299212598425197,"duration":0.43478250000000074,"quarterNotes":"0.500"},{"name":"G3","midi":55,"time":13.91304,"velocity":0.6299212598425197,"duration":0.43478250000000074,"quarterNotes":"0.500"},{"name":"G3","midi":55,"time":14.347822500000001,"velocity":0.6299212598425197,"duration":0.43478250000000074,"quarterNotes":"0.500"},{"name":"D3","midi":50,"time":14.782605000000002,"velocity":0.6299212598425197,"duration":0.43478250000000074,"quarterNotes":"0.500"},{"name":"G3","midi":55,"time":15.217387500000003,"velocity":0.6299212598425197,"duration":0.43478250000000074,"quarterNotes":"0.500"},{"name":"C3","midi":48,"time":15.652170000000003,"velocity":0.6299212598425197,"duration":1.7391300000000012,"quarterNotes":"2.000"},{"name":"D3","midi":50,"time":17.391300000000005,"velocity":0.6299212598425197,"duration":0.8695650000000015,"quarterNotes":"1.000"},{"name":"G3","midi":55,"time":18.260865000000006,"velocity":0.6299212598425197,"duration":0.43478250000000074,"quarterNotes":"0.500"},{"name":"C3","midi":48,"time":18.695647500000007,"velocity":0.6299212598425197,"duration":0.43478250000000074,"quarterNotes":"0.500"},{"name":"D3","midi":50,"time":19.130430000000008,"velocity":0.6299212598425197,"duration":0.8695650000000015,"quarterNotes":"1.000"},{"name":"D3","midi":50,"time":19.99999500000001,"velocity":0.6299212598425197,"duration":0.8695650000000015,"quarterNotes":"1.000"},{"name":"G2","midi":43,"time":20.86956000000001,"velocity":0.6299212598425197,"duration":1.7391299999999994,"quarterNotes":"2.000"},{"name":"B2","midi":47,"time":22.60869000000001,"velocity":0.6299212598425197,"duration":0.8695650000000015,"quarterNotes":"1.000"},{"name":"C3","midi":48,"time":23.47825500000001,"velocity":0.6299212598425197,"duration":0.43478250000000074,"quarterNotes":"0.500"},{"name":"C3","midi":48,"time":23.913037500000012,"velocity":0.6299212598425197,"duration":0.43478250000000074,"quarterNotes":"0.500"},{"name":"D3","midi":50,"time":24.347820000000013,"velocity":0.6299212598425197,"duration":0.8695650000000015,"quarterNotes":"1.000"},{"name":"D3","midi":50,"time":25.217385000000014,"velocity":0.6299212598425197,"duration":0.8695650000000015,"quarterNotes":"1.000"},{"name":"G2","midi":43,"time":26.086950000000016,"velocity":0.6299212598425197,"duration":2.608695000000001,"quarterNotes":"3.000"}]]