[[{"name":"D#4","midi":63,"time":0,"velocity":0.6299212598425197,"duration":0.8999999999999999,"quarterNotes":"1.500"},{"name":"D#4","midi":63,"time":0.8999999999999999,"velocity":0.6299212598425197,"duration":0.30000000000000004,"quarterNotes":"0.500"},{"name":"D#4","midi":63,"time":1.2,"velocity":0.6299212598425197,"duration":0.5999999999999999,"quarterNotes":"1.000"},{"name":"F4","midi":65,"time":1.7999999999999998,"velocity":0.6299212598425197,"duration":0.6000000000000001,"quarterNotes":"1.000"},{"name":"G4","midi":67,"time":2.4,"velocity":0.6299212598425197,"duration":1.1999999999999997,"quarterNotes":"2.000"},{"name":"A#4","midi":70,"time":3.5999999999999996,"velocity":0.6299212598425197,"duration":1.2000000000000002,"quarterNotes":"2.000"},{"name":"G#4","midi":68,"time":4.8,"velocity":0.6299212598425197,"duration":0.8999999999999995,"quarterNotes":"1.500"},{"name":"G#4","midi":68,"time":5.699999999999999,"velocity":0.6299212598425197,"duration":0.2999999999999998,"quarterNotes":"0.500"},{"name":"G#4","midi":68,"time":5.999999999999999,"velocity":0.6299212598425197,"duration":0.5999999999999996,"quarterNotes":"1.000"},{"name":"C5","midi":72,"time":6.599999999999999,"velocity":0.6299212598425197,"duration":0.5999999999999996,"quarterNotes":"1.000"},{"name":"D#5","midi":75,"time":7.199999999999998,"velocity":0.6299212598425197,"duration":2.3999999999999995,"quarterNotes":"4.000"},{"name":"D#5","midi":75,"time":9.599999999999998,"velocity":0.6299212598425197,"duration":0.9000000000000004,"quarterNotes":"1.500"},{"name":"D#5","midi":75,"time":10.499999999999998,"velocity":0.6299212598425197,"duration":0.3000000000000007,"quarterNotes":"0.500"},{"name":"D5","midi":74,"time":10.799999999999999,"velocity":0.6299212598425197,"duration":0.5999999999999996,"quarterNotes":"1.000"},{"name":"C5","midi":72,"time":11.399999999999999,"velocity":0.6299212598425197,"duration":0.5999999999999996,"quarterNotes":"1.000"},{"name":"A#4","midi":70,"time":11.999999999999998,"velocity":0.6299212598425197,"duration":1.1999999999999993,"quarterNotes":"2.000"},{"name":"G4","midi":67,"time":13.199999999999998,"velocity":0.6299212598425197,"duration":1.1999999999999993,"quarterNotes":"2.000"},{"name":"F4","midi":65,"time":14.399999999999997,"velocity":0.6299212598425197,"duration":0.9000000000000004,"quarterNotes":"1.500"},{"name":"F4","midi":65,"time":15.299999999999997,"velocity":0.6299212598425197,"duration":0.3000000000000007,"quarterNotes":"0.500"},{"name":"F4","midi":65,"time":15.599999999999998,"velocity":0.6299212598425197,"duration":0.6000000000000014,"quarterNotes":"1.000"},{"name":"G4","midi":67,"time":16.2,"velocity":0.6299212598425197,"duration":0.6000000000000014,"quarterNotes":"1.000"},{"name":"F4","midi":65,"time":16.8,"velocity":0.6299212598425197,"duration":2.3999999999999986,"quarterNotes":"4.000"},{"name":"G#4","midi":68,"time":19.2,"velocity":0.6299212598425197,"duration":0.8999999999999986,"quarterNotes":"1.500"},{"name":"G#4","midi":68,"time":20.099999999999998,"velocity":0.6299212598425197,"duration":0.3000000000000007,"quarterNotes":"0.500"},{"name":"G4","midi":67,"time":20.4,"velocity":0.6299212598425197,"duration":0.6000000000000014,"quarterNotes":"1.000"},{"name":"F4","midi":65,"time":21,"velocity":0.6299212598425197,"duration":0.6000000000000014,"quarterNotes":"1.000"},{"name":"G4","midi":67,"time":21.6,"velocity":0.6299212598425197,"duration":1.1999999999999993,"quarterNotes":"2.000"},{"name":"A#4","midi":70,"time":22.8,"velocity":0.6299212598425197,"duration":1.1999999999999993,"quarterNotes":"2.000"},{"name":"C#5","midi":73,"time":24,"velocity":0.6299212598425197,"duration":0.8999999999999986,"quarterNotes":"1.500"},{"name":"C#5","midi":73,"time":24.9,"velocity":0.6299212598425197,"duration":0.3000000000000007,"quarterNotes":"0.500"},{"name":"C5","midi":72,"time":25.2,"velocity":0.6299212598425197,"duration":0.6000000000000014,"quarterNotes":"1.000"},{"name":"A#4","midi":70,"time":25.8,"velocity":0.6299212598425197,"duration":0.6000000000000014,"quarterNotes":"1.000"},{"name":"C5","midi":72,"time":26.400000000000002,"velocity":0.6299212598425197,"duration":2.3999999999999986,"quarterNotes":"4.000"},{"name":"D5","midi":74,"time":28.8,"velocity":0.6299212598425197,"duration":0.8999999999999986,"quarterNotes":"1.500"},{"name":"D5","midi":74,"time":29.7,"velocity":0.6299212598425197,"duration":0.3000000000000007,"quarterNotes":"0.500"},{"name":"C5","midi":72,"time":30,"velocity":0.6299212598425197,"duration":0.6000000000000014,"quarterNotes":"1.000"},{"name":"D5","midi":74,"time":30.6,"velocity":0.6299212598425197,"duration":0.6000000000000014,"quarterNotes":"1.000"},{"name":"D#5","midi":75,"time":31.200000000000003,"velocity":0.6299212598425197,"duration":1.2000000000000028,"quarterNotes":"2.000"},{"name":"G4","midi":67,"time":32.400000000000006,"velocity":0.6299212598425197,"duration":1.2000000000000028,"quarterNotes":"2.000"},{"name":"F4","midi":65,"time":33.60000000000001,"velocity":0.6299212598425197,"duration":0.8999999999999986,"quarterNotes":"1.500"},{"name":"F4","midi":65,"time":34.50000000000001,"velocity":0.6299212598425197,"duration":0.29999999999999716,"quarterNotes":"0.500"},{"name":"G4","midi":67,"time":34.800000000000004,"velocity":0.6299212598425197,"duration":0.6000000000000014,"quarterNotes":"1.000"},{"name":"F4","midi":65,"time":35.400000000000006,"velocity":0.6299212598425197,"duration":0.6000000000000014,"quarterNotes":"1.000"},{"name":"D#4","midi":63,"time":36.00000000000001,"velocity":0.6299212598425197,"duration":2.3999999999999986,"quarterNotes":"4.000"}],[{"name":"A#3","midi":58,"time":0,"velocity":0.6299212598425197,"duration":0.8999999999999999,"quarterNotes":"1.500"},{"name":"A#3","midi":58,"time":0.8999999999999999,"velocity":0.6299212598425197,"duration":0.30000000000000004,"quarterNotes":"0.500"},{"name":"A#3","midi":58,"time":1.2,"velocity":0.6299212598425197,"duration":0.5999999999999999,"quarterNotes":"1.000"},{"name":"D4","midi":62,"time":1.7999999999999998,"velocity":0.6299212598425197,"duration":0.6000000000000001,"quarterNotes":"1.000"},{"name":"D#4","midi":63,"time":2.4,"velocity":0.6299212598425197,"duration":1.1999999999999997,"quarterNotes":"2.000"},{"name":"D#4","midi":63,"time":3.5999999999999996,"velocity":0.6299212598425197,"duration":1.2000000000000002,"quarterNotes":"2.000"},{"name":"D#4","midi":63,"time":4.8,"velocity":0.6299212598425197,"duration":0.8999999999999995,"quarterNotes":"1.500"},{"name":"D#4","midi":63,"time":5.699999999999999,"velocity":0.6299212598425197,"duration":0.2999999999999998,"quarterNotes":"0.500"},{"name":"D#4","midi":63,"time":5.999999999999999,"velocity":0.6299212598425197,"duration":0.5999999999999996,"quarterNotes":"1.000"},{"name":"G#4","midi":68,"time":6.599999999999999,"velocity":0.6299212598425197,"duration":0.5999999999999996,"quarterNotes":"1.000"},{"name":"G4","midi":67,"time":7.199999999999998,"velocity":0.6299212598425197,"duration":2.3999999999999995,"quarterNotes":"4.000"},{"name":"D#4","midi":63,"time":9.599999999999998,"velocity":0.6299212598425197,"duration":0.9000000000000004,"quarterNotes":"1.500"},{"name":"D#4","midi":63,"time":10.499999999999998,"velocity":0.6299212598425197,"duration":0.3000000000000007,"quarterNotes":"0.500"},{"name":"F4","midi":65,"time":10.799999999999999,"velocity":0.6299212598425197,"duration":0.5999999999999996,"quarterNotes":"1.000"},{"name":"F4","midi":65,"time":11.399999999999999,"velocity":0.6299212598425197,"duration":0.5999999999999996,"quarterNotes":"1.000"},{"name":"G4","midi":67,"time":11.999999999999998,"velocity":0.6299212598425197,"duration":1.1999999999999993,"quarterNotes":"2.000"},{"name":"D#4","midi":63,"time":13.199999999999998,"velocity":0.6299212598425197,"duration":1.1999999999999993,"quarterNotes":"2.000"},{"name":"D#4","midi":63,"time":14.399999999999997,"velocity":0.6299212598425197,"duration":0.9000000000000004,"quarterNotes":"1.500"},{"name":"D#4","midi":63,"time":15.299999999999997,"velocity":0.6299212598425197,"duration":0.3000000000000007,"quarterNotes":"0.500"},{"name":"D#4","midi":63,"time":15.599999999999998,"velocity":0.6299212598425197,"duration":0.6000000000000014,"quarterNotes":"1.000"},{"name":"D#4","midi":63,"time":16.2,"velocity":0.6299212598425197,"duration":0.6000000000000014,"quarterNotes":"1.000"},{"name":"D4","midi":62,"time":16.8,"velocity":0.6299212598425197,"duration":2.3999999999999986,"quarterNotes":"4.000"},{"name":"D4","midi":62,"time":19.2,"velocity":0.6299212598425197,"duration":0.8999999999999986,"quarterNotes":"1.500"},{"name":"D4","midi":62,"time":20.099999999999998,"velocity":0.6299212598425197,"duration":0.3000000000000007,"quarterNotes":"0.500"},{"name":"D#4","midi":63,"time":20.4,"velocity":0.6299212598425197,"duration":0.6000000000000014,"quarterNotes":"1.000"},{"name":"A#3","midi":58,"time":21,"velocity":0.6299212598425197,"duration":0.6000000000000014,"quarterNotes":"1.000"},{"name":"A#3","midi":58,"time":21.6,"velocity":0.6299212598425197,"duration":1.1999999999999993,"quarterNotes":"2.000"},{"name":"D#4","midi":63,"time":22.8,"velocity":0.6299212598425197,"duration":0.6000000000000014,"quarterNotes":"1.000"},{"name":"G4","midi":67,"time":23.400000000000002,"velocity":0.6299212598425197,"duration":0.6000000000000014,"quarterNotes":"1.000"},{"name":"G4","midi":67,"time":24.000000000000004,"velocity":0.6299212598425197,"duration":0.8999999999999986,"quarterNotes":"1.500"},{"name":"G4","midi":67,"time":24.900000000000002,"velocity":0.6299212598425197,"duration":0.3000000000000007,"quarterNotes":"0.500"},{"name":"G#4","midi":68,"time":25.200000000000003,"velocity":0.6299212598425197,"duration":0.6000000000000014,"quarterNotes":"1.000"},{"name":"D#4","midi":63,"time":25.800000000000004,"velocity":0.6299212598425197,"duration":0.6000000000000014,"quarterNotes":"1.000"},{"name":"D#4","midi":63,"time":26.400000000000006,"velocity":0.6299212598425197,"duration":2.3999999999999986,"quarterNotes":"4.000"},{"name":"F4","midi":65,"time":28.800000000000004,"velocity":0.6299212598425197,"duration":0.8999999999999986,"quarterNotes":"1.500"},{"name":"F4","midi":65,"time":29.700000000000003,"velocity":0.6299212598425197,"duration":0.3000000000000007,"quarterNotes":"0.500"},{"name":"D#4","midi":63,"time":30.000000000000004,"velocity":0.6299212598425197,"duration":0.6000000000000014,"quarterNotes":"1.000"},{"name":"F4","midi":65,"time":30.600000000000005,"velocity":0.6299212598425197,"duration":0.6000000000000014,"quarterNotes":"1.000"},{"name":"D#4","midi":63,"time":31.200000000000006,"velocity":0.6299212598425197,"duration":1.1999999999999993,"quarterNotes":"2.000"},{"name":"D#4","midi":63,"time":32.400000000000006,"velocity":0.6299212598425197,"duration":1.2000000000000028,"quarterNotes":"2.000"},{"name":"D#4","midi":63,"time":33.60000000000001,"velocity":0.6299212598425197,"duration":0.8999999999999986,"quarterNotes":"1.500"},{"name":"D#4","midi":63,"time":34.50000000000001,"velocity":0.6299212598425197,"duration":0.29999999999999716,"quarterNotes":"0.500"},{"name":"D#4","midi":63,"time":34.800000000000004,"velocity":0.6299212598425197,"duration":0.6000000000000014,"quarterNotes":"1.000"},{"name":"D4","midi":62,"time":35.400000000000006,"velocity":0.6299212598425197,"duration":0.6000000000000014,"quarterNotes":"1.000"},{"name":"D#4","midi":63,"time":36.00000000000001,"velocity":0.6299212598425197,"duration":2.3999999999999986,"quarterNotes":"4.000"}],[{"name":"G3","midi":55,"time":0,"velocity":0.6299212598425197,"duration":0.8999999999999999,"quarterNotes":"1.500"},{"name":"G3","midi":55,"time":0.8999999999999999,"velocity":0.6299212598425197,"duration":0.30000000000000004,"quarterNotes":"0.500"},{"name":"G3","midi":55,"time":1.2,"velocity":0.6299212598425197,"duration":0.5999999999999999,"quarterNotes":"1.000"},{"name":"G#3","midi":56,"time":1.7999999999999998,"velocity":0.6299212598425197,"duration":0.6000000000000001,"quarterNotes":"1.000"},{"name":"A#3","midi":58,"time":2.4,"velocity":0.6299212598425197,"duration":1.1999999999999997,"quarterNotes":"2.000"},{"name":"C#4","midi":61,"time":3.5999999999999996,"velocity":0.6299212598425197,"duration":1.2000000000000002,"quarterNotes":"2.000"},{"name":"C4","midi":60,"time":4.8,"velocity":0.6299212598425197,"duration":0.8999999999999995,"quarterNotes":"1.500"},{"name":"C4","midi":60,"time":5.699999999999999,"velocity":0.6299212598425197,"duration":0.2999999999999998,"quarterNotes":"0.500"},{"name":"C4","midi":60,"time":5.999999999999999,"velocity":0.6299212598425197,"duration":0.5999999999999996,"quarterNotes":"1.000"},{"name":"C4","midi":60,"time":6.599999999999999,"velocity":0.6299212598425197,"duration":0.5999999999999996,"quarterNotes":"1.000"},{"name":"A#3","midi":58,"time":7.199999999999998,"velocity":0.6299212598425197,"duration":2.3999999999999995,"quarterNotes":"4.000"},{"name":"C4","midi":60,"time":9.599999999999998,"velocity":0.6299212598425197,"duration":0.9000000000000004,"quarterNotes":"1.500"},{"name":"C4","midi":60,"time":10.499999999999998,"velocity":0.6299212598425197,"duration":0.3000000000000007,"quarterNotes":"0.500"},{"name":"A#3","midi":58,"time":10.799999999999999,"velocity":0.6299212598425197,"duration":0.5999999999999996,"quarterNotes":"1.000"},{"name":"G#3","midi":56,"time":11.399999999999999,"velocity":0.6299212598425197,"duration":0.5999999999999996,"quarterNotes":"1.000"},{"name":"G3","midi":55,"time":11.999999999999998,"velocity":0.6299212598425197,"duration":1.1999999999999993,"quarterNotes":"2.000"},{"name":"A#3","midi":58,"time":13.199999999999998,"velocity":0.6299212598425197,"duration":1.1999999999999993,"quarterNotes":"2.000"},{"name":"C4","midi":60,"time":14.399999999999997,"velocity":0.6299212598425197,"duration":0.9000000000000004,"quarterNotes":"1.500"},{"name":"C4","midi":60,"time":15.299999999999997,"velocity":0.6299212598425197,"duration":0.3000000000000007,"quarterNotes":"0.500"},{"name":"C4","midi":60,"time":15.599999999999998,"velocity":0.6299212598425197,"duration":0.6000000000000014,"quarterNotes":"1.000"},{"name":"C4","midi":60,"time":16.2,"velocity":0.6299212598425197,"duration":0.6000000000000014,"quarterNotes":"1.000"},{"name":"F3","midi":53,"time":16.8,"velocity":0.6299212598425197,"duration":2.3999999999999986,"quarterNotes":"4.000"},{"name":"A#3","midi":58,"time":19.2,"velocity":0.6299212598425197,"duration":0.8999999999999986,"quarterNotes":"1.500"},{"name":"A#3","midi":58,"time":20.099999999999998,"velocity":0.6299212598425197,"duration":0.3000000000000007,"quarterNotes":"0.500"},{"name":"A#3","midi":58,"time":20.4,"velocity":0.6299212598425197,"duration":0.6000000000000014,"quarterNotes":"1.000"},{"name":"A#3","midi":58,"time":21,"velocity":0.6299212598425197,"duration":0.6000000000000014,"quarterNotes":"1.000"},{"name":"G3","midi":55,"time":21.6,"velocity":0.6299212598425197,"duration":1.1999999999999993,"quarterNotes":"2.000"},{"name":"G3","midi":55,"time":22.8,"velocity":0.6299212598425197,"duration":0.6000000000000014,"quarterNotes":"1.000"},{"name":"A#3","midi":58,"time":23.400000000000002,"velocity":0.6299212598425197,"duration":0.6000000000000014,"quarterNotes":"1.000"},{"name":"D#4","midi":63,"time":24.000000000000004,"velocity":0.6299212598425197,"duration":0.8999999999999986,"quarterNotes":"1.500"},{"name":"D#4","midi":63,"time":24.900000000000002,"velocity":0.6299212598425197,"duration":0.3000000000000007,"quarterNotes":"0.500"},{"name":"D#4","midi":63,"time":25.200000000000003,"velocity":0.6299212598425197,"duration":0.6000000000000014,"quarterNotes":"1.000"},{"name":"C#4","midi":61,"time":25.800000000000004,"velocity":0.6299212598425197,"duration":0.6000000000000014,"quarterNotes":"1.000"},{"name":"C4","midi":60,"time":26.400000000000006,"velocity":0.6299212598425197,"duration":2.3999999999999986,"quarterNotes":"4.000"},{"name":"A#3","midi":58,"time":28.800000000000004,"velocity":0.6299212598425197,"duration":0.8999999999999986,"quarterNotes":"1.500"},{"name":"A#3","midi":58,"time":29.700000000000003,"velocity":0.6299212598425197,"duration":0.3000000000000007,"quarterNotes":"0.500"},{"name":"C4","midi":60,"time":30.000000000000004,"velocity":0.6299212598425197,"duration":0.6000000000000014,"quarterNotes":"1.000"},{"name":"A#3","midi":58,"time":30.600000000000005,"velocity":0.6299212598425197,"duration":0.6000000000000014,"quarterNotes":"1.000"},{"name":"A#3","midi":58,"time":31.200000000000006,"velocity":0.6299212598425197,"duration":1.1999999999999993,"quarterNotes":"2.000"},{"name":"D#4","midi":63,"time":32.400000000000006,"velocity":0.6299212598425197,"duration":1.2000000000000028,"quarterNotes":"2.000"},{"name":"C4","midi":60,"time":33.60000000000001,"velocity":0.6299212598425197,"duration":0.8999999999999986,"quarterNotes":"1.500"},{"name":"C4","midi":60,"time":34.50000000000001,"velocity":0.6299212598425197,"duration":0.29999999999999716,"quarterNotes":"0.500"},{"name":"A#3","midi":58,"time":34.800000000000004,"velocity":0.6299212598425197,"duration":0.6000000000000014,"quarterNotes":"1.000"},{"name":"G#3","midi":56,"time":35.400000000000006,"velocity":0.6299212598425197,"duration":0.6000000000000014,"quarterNotes":"1.000"},{"name":"G3","midi":55,"time":36.00000000000001,"velocity":0.6299212598425197,"duration":2.3999999999999986,"quarterNotes":"4.000"}],[{"name":"D#3","midi":51,"time":0,"velocity":0.6299212598425197,"duration":0.8999999999999999,"quarterNotes":"1.500"},{"name":"D#3","midi":51,"time":0.8999999999999999,"velocity":0.6299212598425197,"duration":0.30000000000000004,"quarterNotes":"0.500"},{"name":"D#3","midi":51,"time":1.2,"velocity":0.6299212598425197,"duration":0.5999999999999999,"quarterNotes":"1.000"},{"name":"D#3","midi":51,"time":1.7999999999999998,"velocity":0.6299212598425197,"duration":0.6000000000000001,"quarterNotes":"1.000"},{"name":"D#3","midi":51,"time":2.4,"velocity":0.6299212598425197,"duration":1.1999999999999997,"quarterNotes":"2.000"},{"name":"D#3","midi":51,"time":3.5999999999999996,"velocity":0.6299212598425197,"duration":1.2000000000000002,"quarterNotes":"2.000"},{"name":"D#3","midi":51,"time":4.8,"velocity":0.6299212598425197,"duration":0.8999999999999995,"quarterNotes":"1.500"},{"name":"D#3","midi":51,"time":5.699999999999999,"velocity":0.6299212598425197,"duration":0.2999999999999998,"quarterNotes":"0.500"},{"name":"D#3","midi":51,"time":5.999999999999999,"velocity":0.6299212598425197,"duration":0.5999999999999996,"quarterNotes":"1.000"},{"name":"D#3","midi":51,"time":6.599999999999999,"velocity":0.6299212598425197,"duration":0.5999999999999996,"quarterNotes":"1.000"},{"name":"D#3","midi":51,"time":7.199999999999998,"velocity":0.6299212598425197,"duration":2.3999999999999995,"quarterNotes":"4.000"},{"name":"C3","midi":48,"time":9.599999999999998,"velocity":0.6299212598425197,"duration":0.9000000000000004,"quarterNotes":"1.500"},{"name":"C3","midi":48,"time":10.499999999999998,"velocity":0.6299212598425197,"duration":0.3000000000000007,"quarterNotes":"0.500"},{"name":"D3","midi":50,"time":10.799999999999999,"velocity":0.6299212598425197,"duration":0.5999999999999996,"quarterNotes":"1.000"},{"name":"D3","midi":50,"time":11.399999999999999,"velocity":0.6299212598425197,"duration":0.5999999999999996,"quarterNotes":"1.000"},{"name":"D#3","midi":51,"time":11.999999999999998,"velocity":0.6299212598425197,"duration":1.1999999999999993,"quarterNotes":"2.000"},{"name":"D#3","midi":51,"time":13.199999999999998,"velocity":0.6299212598425197,"duration":1.1999999999999993,"quarterNotes":"2.000"},{"name":"G#2","midi":44,"time":14.399999999999997,"velocity":0.6299212598425197,"duration":0.9000000000000004,"quarterNotes":"1.500"},{"name":"G#2","midi":44,"time":15.299999999999997,"velocity":0.6299212598425197,"duration":0.3000000000000007,"quarterNotes":"0.500"},{"name":"A2","midi":45,"time":15.599999999999998,"velocity":0.6299212598425197,"duration":0.6000000000000014,"quarterNotes":"1.000"},{"name":"A2","midi":45,"time":16.2,"velocity":0.6299212598425197,"duration":0.6000000000000014,"quarterNotes":"1.000"},{"name":"A#2","midi":46,"time":16.8,"velocity":0.6299212598425197,"duration":2.3999999999999986,"quarterNotes":"4.000"},{"name":"A#2","midi":46,"time":19.2,"velocity":0.6299212598425197,"duration":0.8999999999999986,"quarterNotes":"1.500"},{"name":"A#2","midi":46,"time":20.099999999999998,"velocity":0.6299212598425197,"duration":0.3000000000000007,"quarterNotes":"0.500"},{"name":"C3","midi":48,"time":20.4,"velocity":0.6299212598425197,"duration":0.6000000000000014,"quarterNotes":"1.000"},{"name":"D3","midi":50,"time":21,"velocity":0.6299212598425197,"duration":0.6000000000000014,"quarterNotes":"1.000"},{"name":"D#3","midi":51,"time":21.6,"velocity":0.6299212598425197,"duration":1.1999999999999993,"quarterNotes":"2.000"},{"name":"D#3","midi":51,"time":22.8,"velocity":0.6299212598425197,"duration":1.1999999999999993,"quarterNotes":"2.000"},{"name":"D#3","midi":51,"time":24,"velocity":0.6299212598425197,"duration":0.8999999999999986,"quarterNotes":"1.500"},{"name":"D#3","midi":51,"time":24.9,"velocity":0.6299212598425197,"duration":0.3000000000000007,"quarterNotes":"0.500"},{"name":"F3","midi":53,"time":25.2,"velocity":0.6299212598425197,"duration":0.6000000000000014,"quarterNotes":"1.000"},{"name":"G3","midi":55,"time":25.8,"velocity":0.6299212598425197,"duration":0.6000000000000014,"quarterNotes":"1.000"},{"name":"G#3","midi":56,"time":26.400000000000002,"velocity":0.6299212598425197,"duration":2.3999999999999986,"quarterNotes":"4.000"},{"name":"G#3","midi":56,"time":28.8,"velocity":0.6299212598425197,"duration":0.8999999999999986,"quarterNotes":"1.500"},{"name":"G#3","midi":56,"time":29.7,"velocity":0.6299212598425197,"duration":0.3000000000000007,"quarterNotes":"0.500"},{"name":"G#3","midi":56,"time":30,"velocity":0.6299212598425197,"duration":0.6000000000000014,"quarterNotes":"1.000"},{"name":"G#3","midi":56,"time":30.6,"velocity":0.6299212598425197,"duration":0.6000000000000014,"quarterNotes":"1.000"},{"name":"G3","midi":55,"time":31.200000000000003,"velocity":0.6299212598425197,"duration":1.2000000000000028,"quarterNotes":"2.000"},{"name":"C4","midi":60,"time":32.400000000000006,"velocity":0.6299212598425197,"duration":1.2000000000000028,"quarterNotes":"2.000"},{"name":"G#3","midi":56,"time":33.60000000000001,"velocity":0.6299212598425197,"duration":0.8999999999999986,"quarterNotes":"1.500"},{"name":"G#3","midi":56,"time":34.50000000000001,"velocity":0.6299212598425197,"duration":0.29999999999999716,"quarterNotes":"0.500"},{"name":"A#3","midi":58,"time":34.800000000000004,"velocity":0.6299212598425197,"duration":0.6000000000000014,"quarterNotes":"1.000"},{"name":"A#2","midi":46,"time":35.400000000000006,"velocity":0.6299212598425197,"duration":0.6000000000000014,"quarterNotes":"1.000"},{"name":"D#3","midi":51,"time":36.00000000000001,"velocity":0.6299212598425197,"duration":2.3999999999999986,"quarterNotes":"4.000"}]]