[[{"name":"G4","midi":67,"time":0,"velocity":0.6299212598425197,"duration":0.550458,"quarterNotes":"1.000"},{"name":"G4","midi":67,"time":0.550458,"velocity":0.6299212598425197,"duration":0.550458,"quarterNotes":"1.000"},{"name":"G4","midi":67,"time":1.100916,"velocity":0.6299212598425197,"duration":0.5504580000000001,"quarterNotes":"1.000"},{"name":"A4","midi":69,"time":1.6513740000000001,"velocity":0.6299212598425197,"duration":0.5504579999999999,"quarterNotes":"1.000"},{"name":"G4","midi":67,"time":2.201832,"velocity":0.6299212598425197,"duration":1.1009160000000002,"quarterNotes":"2.000"},{"name":"C4","midi":60,"time":3.3027480000000002,"velocity":0.6299212598425197,"duration":0.27522899999999995,"quarterNotes":"0.500"},{"name":"D4","midi":62,"time":3.577977,"velocity":0.6299212598425197,"duration":0.27522899999999995,"quarterNotes":"0.500"},{"name":"E4","midi":64,"time":3.853206,"velocity":0.6299212598425197,"duration":0.5504579999999999,"quarterNotes":"1.000"},{"name":"E4","midi":64,"time":4.403664,"velocity":0.6299212598425197,"duration":0.5504579999999999,"quarterNotes":"1.000"},{"name":"D4","midi":62,"time":4.954122,"velocity":0.6299212598425197,"duration":0.5504579999999999,"quarterNotes":"1.000"},{"name":"E4","midi":64,"time":5.50458,"velocity":0.6299212598425197,"duration":0.21788962499999975,"quarterNotes":"0.396"},{"name":"F4","midi":65,"time":5.779808999999999,"velocity":0.6299212598425197,"duration":0.21788962499999975,"quarterNotes":"0.396"},{"name":"G4","midi":67,"time":6.055037999999999,"velocity":0.6299212598425197,"duration":0.8772924375000004,"quarterNotes":"1.594"},{"name":"A4","midi":69,"time":7.1559539999999995,"velocity":0.6299212598425197,"duration":0.5504579999999999,"quarterNotes":"1.000"},{"name":"A4","midi":69,"time":7.706411999999999,"velocity":0.6299212598425197,"duration":0.5504579999999999,"quarterNotes":"1.000"},{"name":"A4","midi":69,"time":8.25687,"velocity":0.6299212598425197,"duration":0.5504580000000008,"quarterNotes":"1.000"},{"name":"G4","midi":67,"time":8.807328,"velocity":0.6299212598425197,"duration":0.5504580000000008,"quarterNotes":"1.000"},{"name":"G4","midi":67,"time":9.357786,"velocity":0.6299212598425197,"duration":0.5504580000000008,"quarterNotes":"1.000"},{"name":"E4","midi":64,"time":9.908244000000002,"velocity":0.6299212598425197,"duration":0.5504580000000008,"quarterNotes":"1.000"},{"name":"E4","midi":64,"time":10.458702000000002,"velocity":0.6299212598425197,"duration":0.5504580000000008,"quarterNotes":"1.000"},{"name":"E4","midi":64,"time":11.009160000000003,"velocity":0.6299212598425197,"duration":0.5504580000000008,"quarterNotes":"1.000"},{"name":"F#4","midi":66,"time":11.559618000000004,"velocity":0.6299212598425197,"duration":0.5504580000000008,"quarterNotes":"1.000"},{"name":"G4","midi":67,"time":12.110076000000005,"velocity":0.6299212598425197,"duration":1.1009159999999998,"quarterNotes":"2.000"},{"name":"E4","midi":64,"time":13.210992000000005,"velocity":0.6299212598425197,"duration":0.5504580000000008,"quarterNotes":"1.000"},{"name":"E4","midi":64,"time":13.761450000000005,"velocity":0.6299212598425197,"duration":0.5504580000000008,"quarterNotes":"1.000"},{"name":"E4","midi":64,"time":14.311908000000006,"velocity":0.6299212598425197,"duration":0.5504580000000008,"quarterNotes":"1.000"},{"name":"E4","midi":64,"time":14.862366000000007,"velocity":0.6299212598425197,"duration":0.5504580000000008,"quarterNotes":"1.000"},{"name":"E4","midi":64,"time":15.412824000000008,"velocity":0.6299212598425197,"duration":0.2752289999999995,"quarterNotes":"0.500"},{"name":"F4","midi":65,"time":15.688053000000007,"velocity":0.6299212598425197,"duration":0.2752289999999995,"quarterNotes":"0.500"},{"name":"G4","midi":67,"time":15.963282000000007,"velocity":0.6299212598425197,"duration":0.550457999999999,"quarterNotes":"1.000"},{"name":"G4","midi":67,"time":16.513740000000006,"velocity":0.6299212598425197,"duration":0.550457999999999,"quarterNotes":"1.000"},{"name":"A4","midi":69,"time":17.064198000000005,"velocity":0.6299212598425197,"duration":0.550457999999999,"quarterNotes":"1.000"},{"name":"G4","midi":67,"time":17.614656000000004,"velocity":0.6299212598425197,"duration":0.550457999999999,"quarterNotes":"1.000"},{"name":"E4","midi":64,"time":18.165114000000003,"velocity":0.6299212598425197,"duration":0.550457999999999,"quarterNotes":"1.000"},{"name":"E4","midi":64,"time":18.715572,"velocity":0.6299212598425197,"duration":0.2752289999999995,"quarterNotes":"0.500"},{"name":"D4","midi":62,"time":18.990801,"velocity":0.6299212598425197,"duration":0.2752289999999995,"quarterNotes":"0.500"},{"name":"D4","midi":62,"time":19.26603,"velocity":0.6299212598425197,"duration":1.1009160000000016,"quarterNotes":"2.000"},{"name":"C5","midi":72,"time":20.366946000000002,"velocity":0.6299212598425197,"duration":0.550457999999999,"quarterNotes":"1.000"},{"name":"C5","midi":72,"time":20.917404,"velocity":0.6299212598425197,"duration":0.550457999999999,"quarterNotes":"1.000"},{"name":"C5","midi":72,"time":21.467862,"velocity":0.6299212598425197,"duration":0.550457999999999,"quarterNotes":"1.000"},{"name":"C5","midi":72,"time":22.01832,"velocity":0.6299212598425197,"duration":0.550457999999999,"quarterNotes":"1.000"},{"name":"G4","midi":67,"time":22.568778,"velocity":0.6299212598425197,"duration":0.550457999999999,"quarterNotes":"1.000"},{"name":"C4","midi":60,"time":23.119235999999997,"velocity":0.6299212598425197,"duration":0.550457999999999,"quarterNotes":"1.000"},{"name":"E4","midi":64,"time":23.669693999999996,"velocity":0.6299212598425197,"duration":0.550457999999999,"quarterNotes":"1.000"},{"name":"E4","midi":64,"time":24.220151999999995,"velocity":0.6299212598425197,"duration":0.550457999999999,"quarterNotes":"1.000"},{"name":"D4","midi":62,"time":24.770609999999994,"velocity":0.6299212598425197,"duration":0.550457999999999,"quarterNotes":"1.000"},{"name":"C4","midi":60,"time":25.321067999999993,"velocity":0.6299212598425197,"duration":1.6513740000000006,"quarterNotes":"3.000"}],[{"name":"E4","midi":64,"time":0,"velocity":0.6299212598425197,"duration":0.550458,"quarterNotes":"1.000"},{"name":"E4","midi":64,"time":0.550458,"velocity":0.6299212598425197,"duration":0.550458,"quarterNotes":"1.000"},{"name":"E4","midi":64,"time":1.100916,"velocity":0.6299212598425197,"duration":0.5504580000000001,"quarterNotes":"1.000"},{"name":"C4","midi":60,"time":1.6513740000000001,"velocity":0.6299212598425197,"duration":0.5504579999999999,"quarterNotes":"1.000"},{"name":"E4","midi":64,"time":2.201832,"velocity":0.6299212598425197,"duration":1.1009160000000002,"quarterNotes":"2.000"},{"name":"G3","midi":55,"time":3.3027480000000002,"velocity":0.6299212598425197,"duration":0.27522899999999995,"quarterNotes":"0.500"},{"name":"B3","midi":59,"time":3.577977,"velocity":0.6299212598425197,"duration":0.27522899999999995,"quarterNotes":"0.500"},{"name":"C4","midi":60,"time":3.853206,"velocity":0.6299212598425197,"duration":0.5504579999999999,"quarterNotes":"1.000"},{"name":"C4","midi":60,"time":4.403664,"velocity":0.6299212598425197,"duration":0.5504579999999999,"quarterNotes":"1.000"},{"name":"B3","midi":59,"time":4.954122,"velocity":0.6299212598425197,"duration":0.5504579999999999,"quarterNotes":"1.000"},{"name":"C4","midi":60,"time":5.50458,"velocity":0.6299212598425197,"duration":0.21788962499999975,"quarterNotes":"0.396"},{"name":"C4","midi":60,"time":5.779808999999999,"velocity":0.6299212598425197,"duration":0.21788962499999975,"quarterNotes":"0.396"},{"name":"C4","midi":60,"time":6.055037999999999,"velocity":0.6299212598425197,"duration":0.8772924375000004,"quarterNotes":"1.594"},{"name":"C4","midi":60,"time":7.1559539999999995,"velocity":0.6299212598425197,"duration":0.5504579999999999,"quarterNotes":"1.000"},{"name":"C4","midi":60,"time":7.706411999999999,"velocity":0.6299212598425197,"duration":0.5504579999999999,"quarterNotes":"1.000"},{"name":"C4","midi":60,"time":8.25687,"velocity":0.6299212598425197,"duration":0.5504580000000008,"quarterNotes":"1.000"},{"name":"E4","midi":64,"time":8.807328,"velocity":0.6299212598425197,"duration":0.5504580000000008,"quarterNotes":"1.000"},{"name":"E4","midi":64,"time":9.357786,"velocity":0.6299212598425197,"duration":0.5504580000000008,"quarterNotes":"1.000"},{"name":"C4","midi":60,"time":9.908244000000002,"velocity":0.6299212598425197,"duration":0.5504580000000008,"quarterNotes":"1.000"},{"name":"C4","midi":60,"time":10.458702000000002,"velocity":0.6299212598425197,"duration":0.5504580000000008,"quarterNotes":"1.000"},{"name":"C4","midi":60,"time":11.009160000000003,"velocity":0.6299212598425197,"duration":0.5504580000000008,"quarterNotes":"1.000"},{"name":"C4","midi":60,"time":11.559618000000004,"velocity":0.6299212598425197,"duration":0.5504580000000008,"quarterNotes":"1.000"},{"name":"B3","midi":59,"time":12.110076000000005,"velocity":0.6299212598425197,"duration":1.1009159999999998,"quarterNotes":"2.000"},{"name":"C4","midi":60,"time":13.210992000000005,"velocity":0.6299212598425197,"duration":0.5504580000000008,"quarterNotes":"1.000"},{"name":"C4","midi":60,"time":13.761450000000005,"velocity":0.6299212598425197,"duration":0.5504580000000008,"quarterNotes":"1.000"},{"name":"C4","midi":60,"time":14.311908000000006,"velocity":0.6299212598425197,"duration":0.5504580000000008,"quarterNotes":"1.000"},{"name":"C4","midi":60,"time":14.862366000000007,"velocity":0.6299212598425197,"duration":0.5504580000000008,"quarterNotes":"1.000"},{"name":"C4","midi":60,"time":15.412824000000008,"velocity":0.6299212598425197,"duration":0.5504580000000008,"quarterNotes":"1.000"},{"name":"C4","midi":60,"time":15.963282000000008,"velocity":0.6299212598425197,"duration":0.5504580000000008,"quarterNotes":"1.000"},{"name":"E4","midi":64,"time":16.51374000000001,"velocity":0.6299212598425197,"duration":0.550457999999999,"quarterNotes":"1.000"},{"name":"F4","midi":65,"time":17.064198000000008,"velocity":0.6299212598425197,"duration":0.550457999999999,"quarterNotes":"1.000"},{"name":"E4","midi":64,"time":17.614656000000007,"velocity":0.6299212598425197,"duration":0.550457999999999,"quarterNotes":"1.000"},{"name":"C4","midi":60,"time":18.165114000000006,"velocity":0.6299212598425197,"duration":0.550457999999999,"quarterNotes":"1.000"},{"name":"C4","midi":60,"time":18.715572000000005,"velocity":0.6299212598425197,"duration":0.2752289999999995,"quarterNotes":"0.500"},{"name":"B3","midi":59,"time":18.990801000000005,"velocity":0.6299212598425197,"duration":0.2752289999999995,"quarterNotes":"0.500"},{"name":"B3","midi":59,"time":19.266030000000004,"velocity":0.6299212598425197,"duration":1.1009160000000016,"quarterNotes":"2.000"},{"name":"E4","midi":64,"time":20.366946000000006,"velocity":0.6299212598425197,"duration":0.550457999999999,"quarterNotes":"1.000"},{"name":"E4","midi":64,"time":20.917404000000005,"velocity":0.6299212598425197,"duration":0.550457999999999,"quarterNotes":"1.000"},{"name":"D#4","midi":63,"time":21.467862000000004,"velocity":0.6299212598425197,"duration":0.550457999999999,"quarterNotes":"1.000"},{"name":"E4","midi":64,"time":22.018320000000003,"velocity":0.6299212598425197,"duration":0.550457999999999,"quarterNotes":"1.000"},{"name":"E4","midi":64,"time":22.568778000000002,"velocity":0.6299212598425197,"duration":0.550457999999999,"quarterNotes":"1.000"},{"name":"A3","midi":57,"time":23.119236,"velocity":0.6299212598425197,"duration":0.550457999999999,"quarterNotes":"1.000"},{"name":"C4","midi":60,"time":23.669694,"velocity":0.6299212598425197,"duration":0.550457999999999,"quarterNotes":"1.000"},{"name":"C4","midi":60,"time":24.220152,"velocity":0.6299212598425197,"duration":0.550457999999999,"quarterNotes":"1.000"},{"name":"B3","midi":59,"time":24.770609999999998,"velocity":0.6299212598425197,"duration":0.550457999999999,"quarterNotes":"1.000"},{"name":"C4","midi":60,"time":25.321067999999997,"velocity":0.6299212598425197,"duration":1.6513740000000006,"quarterNotes":"3.000"}],[{"name":"C4","midi":60,"time":0,"velocity":0.6299212598425197,"duration":0.550458,"quarterNotes":"1.000"},{"name":"C4","midi":60,"time":0.550458,"velocity":0.6299212598425197,"duration":0.550458,"quarterNotes":"1.000"},{"name":"C4","midi":60,"time":1.100916,"velocity":0.6299212598425197,"duration":0.5504580000000001,"quarterNotes":"1.000"},{"name":"A3","midi":57,"time":1.6513740000000001,"velocity":0.6299212598425197,"duration":0.27522899999999995,"quarterNotes":"0.500"},{"name":"B3","midi":59,"time":1.926603,"velocity":0.6299212598425197,"duration":0.27522899999999995,"quarterNotes":"0.500"},{"name":"C4","midi":60,"time":2.201832,"velocity":0.6299212598425197,"duration":1.1009160000000002,"quarterNotes":"2.000"},{"name":"E3","midi":52,"time":3.3027480000000002,"velocity":0.6299212598425197,"duration":0.27522899999999995,"quarterNotes":"0.500"},{"name":"F3","midi":53,"time":3.577977,"velocity":0.6299212598425197,"duration":0.27522899999999995,"quarterNotes":"0.500"},{"name":"G3","midi":55,"time":3.853206,"velocity":0.6299212598425197,"duration":0.5504579999999999,"quarterNotes":"1.000"},{"name":"G3","midi":55,"time":4.403664,"velocity":0.6299212598425197,"duration":0.5504579999999999,"quarterNotes":"1.000"},{"name":"G3","midi":55,"time":4.954122,"velocity":0.6299212598425197,"duration":0.5504579999999999,"quarterNotes":"1.000"},{"name":"G3","midi":55,"time":5.50458,"velocity":0.6299212598425197,"duration":0.21788962499999975,"quarterNotes":"0.396"},{"name":"F3","midi":53,"time":5.779808999999999,"velocity":0.6299212598425197,"duration":0.21788962499999975,"quarterNotes":"0.396"},{"name":"E3","midi":52,"time":6.055037999999999,"velocity":0.6299212598425197,"duration":0.8772924375000004,"quarterNotes":"1.594"},{"name":"F3","midi":53,"time":7.1559539999999995,"velocity":0.6299212598425197,"duration":0.5504579999999999,"quarterNotes":"1.000"},{"name":"F3","midi":53,"time":7.706411999999999,"velocity":0.6299212598425197,"duration":0.2752290000000004,"quarterNotes":"0.500"},{"name":"G3","midi":55,"time":7.981641,"velocity":0.6299212598425197,"duration":0.2752289999999995,"quarterNotes":"0.500"},{"name":"A3","midi":57,"time":8.25687,"velocity":0.6299212598425197,"duration":0.2752289999999995,"quarterNotes":"0.500"},{"name":"B3","midi":59,"time":8.532098999999999,"velocity":0.6299212598425197,"duration":0.2752289999999995,"quarterNotes":"0.500"},{"name":"C4","midi":60,"time":8.807327999999998,"velocity":0.6299212598425197,"duration":0.5504580000000008,"quarterNotes":"1.000"},{"name":"C4","midi":60,"time":9.357785999999999,"velocity":0.6299212598425197,"duration":0.5504580000000008,"quarterNotes":"1.000"},{"name":"G3","midi":55,"time":9.908244,"velocity":0.6299212598425197,"duration":0.5504580000000008,"quarterNotes":"1.000"},{"name":"A3","midi":57,"time":10.458702,"velocity":0.6299212598425197,"duration":0.5504580000000008,"quarterNotes":"1.000"},{"name":"A3","midi":57,"time":11.009160000000001,"velocity":0.6299212598425197,"duration":0.5504580000000008,"quarterNotes":"1.000"},{"name":"A3","midi":57,"time":11.559618000000002,"velocity":0.6299212598425197,"duration":0.5504580000000008,"quarterNotes":"1.000"},{"name":"G3","midi":55,"time":12.110076000000003,"velocity":0.6299212598425197,"duration":1.1009159999999998,"quarterNotes":"2.000"},{"name":"G3","midi":55,"time":13.210992000000003,"velocity":0.6299212598425197,"duration":0.5504580000000008,"quarterNotes":"1.000"},{"name":"G3","midi":55,"time":13.761450000000004,"velocity":0.6299212598425197,"duration":0.5504580000000008,"quarterNotes":"1.000"},{"name":"G3","midi":55,"time":14.311908000000004,"velocity":0.6299212598425197,"duration":0.5504580000000008,"quarterNotes":"1.000"},{"name":"G3","midi":55,"time":14.862366000000005,"velocity":0.6299212598425197,"duration":0.5504580000000008,"quarterNotes":"1.000"},{"name":"G3","midi":55,"time":15.412824000000006,"velocity":0.6299212598425197,"duration":0.2752289999999995,"quarterNotes":"0.500"},{"name":"F3","midi":53,"time":15.688053000000005,"velocity":0.6299212598425197,"duration":0.2752289999999995,"quarterNotes":"0.500"},{"name":"E3","midi":52,"time":15.963282000000005,"velocity":0.6299212598425197,"duration":0.5504580000000008,"quarterNotes":"1.000"},{"name":"C4","midi":60,"time":16.513740000000006,"velocity":0.6299212598425197,"duration":0.550457999999999,"quarterNotes":"1.000"},{"name":"C4","midi":60,"time":17.064198000000005,"velocity":0.6299212598425197,"duration":0.550457999999999,"quarterNotes":"1.000"},{"name":"C4","midi":60,"time":17.614656000000004,"velocity":0.6299212598425197,"duration":0.550457999999999,"quarterNotes":"1.000"},{"name":"G3","midi":55,"time":18.165114000000003,"velocity":0.6299212598425197,"duration":0.550457999999999,"quarterNotes":"1.000"},{"name":"G3","midi":55,"time":18.715572,"velocity":0.6299212598425197,"duration":0.2752289999999995,"quarterNotes":"0.500"},{"name":"G3","midi":55,"time":18.990801,"velocity":0.6299212598425197,"duration":0.2752289999999995,"quarterNotes":"0.500"},{"name":"G3","midi":55,"time":19.26603,"velocity":0.6299212598425197,"duration":1.1009160000000016,"quarterNotes":"2.000"},{"name":"G3","midi":55,"time":20.366946000000002,"velocity":0.6299212598425197,"duration":0.550457999999999,"quarterNotes":"1.000"},{"name":"G3","midi":55,"time":20.917404,"velocity":0.6299212598425197,"duration":0.550457999999999,"quarterNotes":"1.000"},{"name":"C4","midi":60,"time":21.467862,"velocity":0.6299212598425197,"duration":0.550457999999999,"quarterNotes":"1.000"},{"name":"G3","midi":55,"time":22.01832,"velocity":0.6299212598425197,"duration":0.550457999999999,"quarterNotes":"1.000"},{"name":"G3","midi":55,"time":22.568778,"velocity":0.6299212598425197,"duration":0.550457999999999,"quarterNotes":"1.000"},{"name":"E3","midi":52,"time":23.119235999999997,"velocity":0.6299212598425197,"duration":0.550457999999999,"quarterNotes":"1.000"},{"name":"G3","midi":55,"time":23.669693999999996,"velocity":0.6299212598425197,"duration":0.550457999999999,"quarterNotes":"1.000"},{"name":"G3","midi":55,"time":24.220151999999995,"velocity":0.6299212598425197,"duration":0.550457999999999,"quarterNotes":"1.000"},{"name":"F3","midi":53,"time":24.770609999999994,"velocity":0.6299212598425197,"duration":0.550457999999999,"quarterNotes":"1.000"},{"name":"E3","midi":52,"time":25.321067999999993,"velocity":0.6299212598425197,"duration":1.6513740000000006,"quarterNotes":"3.000"}],[{"name":"C3","midi":48,"time":0,"velocity":0.6299212598425197,"duration":0.550458,"quarterNotes":"1.000"},{"name":"C3","midi":48,"time":0.550458,"velocity":0.6299212598425197,"duration":0.550458,"quarterNotes":"1.000"},{"name":"C3","midi":48,"time":1.100916,"velocity":0.6299212598425197,"duration":0.5504580000000001,"quarterNotes":"1.000"},{"name":"F3","midi":53,"time":1.6513740000000001,"velocity":0.6299212598425197,"duration":0.5504579999999999,"quarterNotes":"1.000"},{"name":"C3","midi":48,"time":2.201832,"velocity":0.6299212598425197,"duration":1.1009160000000002,"quarterNotes":"2.000"},{"name":"C3","midi":48,"time":3.3027480000000002,"velocity":0.6299212598425197,"duration":0.27522899999999995,"quarterNotes":"0.500"},{"name":"C3","midi":48,"time":3.577977,"velocity":0.6299212598425197,"duration":0.27522899999999995,"quarterNotes":"0.500"},{"name":"C3","midi":48,"time":3.853206,"velocity":0.6299212598425197,"duration":0.5504579999999999,"quarterNotes":"1.000"},{"name":"C3","midi":48,"time":4.403664,"velocity":0.6299212598425197,"duration":0.5504579999999999,"quarterNotes":"1.000"},{"name":"G2","midi":43,"time":4.954122,"velocity":0.6299212598425197,"duration":0.5504579999999999,"quarterNotes":"1.000"},{"name":"C3","midi":48,"time":5.50458,"velocity":0.6299212598425197,"duration":0.21788962499999975,"quarterNotes":"0.396"},{"name":"C3","midi":48,"time":5.779808999999999,"velocity":0.6299212598425197,"duration":0.21788962499999975,"quarterNotes":"0.396"},{"name":"C3","midi":48,"time":6.055037999999999,"velocity":0.6299212598425197,"duration":0.8772924375000004,"quarterNotes":"1.594"},{"name":"F3","midi":53,"time":7.1559539999999995,"velocity":0.6299212598425197,"duration":0.5504579999999999,"quarterNotes":"1.000"},{"name":"F3","midi":53,"time":7.706411999999999,"velocity":0.6299212598425197,"duration":0.5504579999999999,"quarterNotes":"1.000"},{"name":"F3","midi":53,"time":8.25687,"velocity":0.6299212598425197,"duration":0.5504580000000008,"quarterNotes":"1.000"},{"name":"C3","midi":48,"time":8.807328,"velocity":0.6299212598425197,"duration":0.5504580000000008,"quarterNotes":"1.000"},{"name":"C3","midi":48,"time":9.357786,"velocity":0.6299212598425197,"duration":0.5504580000000008,"quarterNotes":"1.000"},{"name":"C3","midi":48,"time":9.908244000000002,"velocity":0.6299212598425197,"duration":0.5504580000000008,"quarterNotes":"1.000"},{"name":"A2","midi":45,"time":10.458702000000002,"velocity":0.6299212598425197,"duration":0.5504580000000008,"quarterNotes":"1.000"},{"name":"A2","midi":45,"time":11.009160000000003,"velocity":0.6299212598425197,"duration":0.5504580000000008,"quarterNotes":"1.000"},{"name":"D3","midi":50,"time":11.559618000000004,"velocity":0.6299212598425197,"duration":0.5504580000000008,"quarterNotes":"1.000"},{"name":"G2","midi":43,"time":12.110076000000005,"velocity":0.6299212598425197,"duration":1.1009159999999998,"quarterNotes":"2.000"},{"name":"C3","midi":48,"time":13.210992000000005,"velocity":0.6299212598425197,"duration":0.5504580000000008,"quarterNotes":"1.000"},{"name":"C3","midi":48,"time":13.761450000000005,"velocity":0.6299212598425197,"duration":0.5504580000000008,"quarterNotes":"1.000"},{"name":"C3","midi":48,"time":14.311908000000006,"velocity":0.6299212598425197,"duration":0.5504580000000008,"quarterNotes":"1.000"},{"name":"C3","midi":48,"time":14.862366000000007,"velocity":0.6299212598425197,"duration":0.5504580000000008,"quarterNotes":"1.000"},{"name":"C3","midi":48,"time":15.412824000000008,"velocity":0.6299212598425197,"duration":0.5504580000000008,"quarterNotes":"1.000"},{"name":"C3","midi":48,"time":15.963282000000008,"velocity":0.6299212598425197,"duration":0.5504580000000008,"quarterNotes":"1.000"},{"name":"C3","midi":48,"time":16.51374000000001,"velocity":0.6299212598425197,"duration":0.550457999999999,"quarterNotes":"1.000"},{"name":"C3","midi":48,"time":17.064198000000008,"velocity":0.6299212598425197,"duration":0.550457999999999,"quarterNotes":"1.000"},{"name":"C3","midi":48,"time":17.614656000000007,"velocity":0.6299212598425197,"duration":0.550457999999999,"quarterNotes":"1.000"},{"name":"C3","midi":48,"time":18.165114000000006,"velocity":0.6299212598425197,"duration":0.550457999999999,"quarterNotes":"1.000"},{"name":"G2","midi":43,"time":18.715572000000005,"velocity":0.6299212598425197,"duration":0.2752289999999995,"quarterNotes":"0.500"},{"name":"G2","midi":43,"time":18.990801000000005,"velocity":0.6299212598425197,"duration":0.2752289999999995,"quarterNotes":"0.500"},{"name":"G2","midi":43,"time":19.266030000000004,"velocity":0.6299212598425197,"duration":1.1009160000000016,"quarterNotes":"2.000"},{"name":"C3","midi":48,"time":20.366946000000006,"velocity":0.6299212598425197,"duration":0.550457999999999,"quarterNotes":"1.000"},{"name":"C3","midi":48,"time":20.917404000000005,"velocity":0.6299212598425197,"duration":0.550457999999999,"quarterNotes":"1.000"},{"name":"G#2","midi":44,"time":21.467862000000004,"velocity":0.6299212598425197,"duration":0.550457999999999,"quarterNotes":"1.000"},{"name":"G2","midi":43,"time":22.018320000000003,"velocity":0.6299212598425197,"duration":0.550457999999999,"quarterNotes":"1.000"},{"name":"G2","midi":43,"time":22.568778000000002,"velocity":0.6299212598425197,"duration":0.550457999999999,"quarterNotes":"1.000"},{"name":"A2","midi":45,"time":23.119236,"velocity":0.6299212598425197,"duration":0.550457999999999,"quarterNotes":"1.000"},{"name":"G2","midi":43,"time":23.669694,"velocity":0.6299212598425197,"duration":0.550457999999999,"quarterNotes":"1.000"},{"name":"G2","midi":43,"time":24.220152,"velocity":0.6299212598425197,"duration":0.550457999999999,"quarterNotes":"1.000"},{"name":"G2","midi":43,"time":24.770609999999998,"velocity":0.6299212598425197,"duration":0.550457999999999,"quarterNotes":"1.000"},{"name":"C3","midi":48,"time":25.321067999999997,"velocity":0.6299212598425197,"duration":1.6513740000000006,"quarterNotes":"3.000"}]]